<?xml version="1.0" encoding="UTF-8"?>
<svg version="1.1" viewBox="0 0 2048 1597" width="1280" height="1280" xmlns="http://www.w3.org/2000/svg">
<path transform="translate(188,2)" d="m0 0h293l12 3 10 6 8 9 5 10 1 80 1 4 1 34 729 1v618l-1 1-377 1v77h136l1 20 334-1 9-3 29-14 28-13 35-16 31-14 13-6-10-3h-8l-6-2-8-1-7-2-10-4-17-9-5-4-11-9-14-14-7-8-2-3v-8l7-24 5-21 9-34-1-5-11-6-35-8-13-5-11-6-10-8-7-11-3-7-1-5v-22l3-11 5-10 6-10 1-50 3-1h60l20 1v73l-4 9 1 5 11 20 4-2 24 16 16 9 28 14 19 8 19 7 23 7 16 4 10 2h15l12-5 9-6 7-10 8-16 6-14 11-35 12-41 6-18 7-16 7-13 10-14 7-8-1-13-5-21-6-19v-2h-15l-8-6-11-7-10-10-8-13-3-9-6-2-8-7-1-2v-6l4-8-2 1h-7l-6-4-6-9-2-6v-14l4-8 6-4 8-1-11-10-5-5-7-8-7-14-3-16v-15l2-8v-4l5-1 2 3-2 4-1 10-1 2v9l4 15 7 13 9 10 5 4-10-11-8-14-4-10v-20l5-9 5-5 9-5 6-1 7-1 5 1 2 1 6 1 12 7 16 13 12 12h2l8-11 9-6 4-1h11l6 3 9 7 16 1 14 2 12 3 16 6 11 6 10 9 7 10 5 11 2 13 1 1v15l-1 1-1 13-4 14-10 19-6 8-9 8-14 9-12 7-18 7h-2l11 25 7 14 12 18 15 26 9 18 51 1h154l15 5 12 7 10 9 9 13 5 13 2 10 1 1v17l-1 1-2 12-2 9-1 9-1 1-2 13-2 9v6l-2 5-1 9-3 14-2 15-3 12-3 19-3 12-1 10-1 1-1 9-1 1-3 20-1 1-1 9-1 1-1 9-1 7-2 6v6l-3 12-1 3-1 9-2 10-1 2-1 8-1 9-1 1-1 9-3 12-1 9-2 10-1 1-1 9-1 5-3 16-3 15-3 17-2 10-3 19-3 12-3 19-3 13-3 18-2 11-170 1-3 11-6 9-8 6-9 3h-47l1 84 7 8 4 10v260h150l10 4 9 6 7 9 4 9 1 4 1 19 11 4 9 6 7 8 4 8 2 6 1 8-2 12-6 12-7 8-10 6-6 2-12 1-11-2-10-5-9-8-5-8-3-9v-17l4-11 6-8 9-8 13-5v-14l-4-10-7-8-11-5-10-1h-61l-6-1 6 10 3 8 1 5 1 16 11 4 9 6 7 8 5 11 1 5v13l-3 10-7 11-9 7-12 5-5 1h-8l-10-2-11-6-8-8-6-12-2-7v-11l4-13 8-11 10-7 11-4v-12l-4-11-5-7-10-6-3-1h-157l-7 3-6 4-6 7-3 8-2 15 9 2 9 5 8 7 6 10 3 10v12l-4 13-8 11-9 6-10 4-110 1h-329l4-6 11-13 12-11 17-12 18-10 26-12 17-9 19-12 13-9 19-14 13-11 3-4 1-7h-9l-2-7-19-129-23-162-12-91-5-49-3-34v-23l3-17 4-12 9-16 8-9h-315l-1 674h-33v-675h-701l1 14 1 2 1 12 1 2 1 13 1 2v13l2 5v14l2 11 1 18 1 8v20l2 2v48l1 2v61l-1 3v23l-2 43-4 44-1 5-1 14-1 2-1 11-2 9h57l1 1v264l-5 12-4 6-5 4-12 5h-235l-14-7-6-7-5-11v-267h54l-3-8v-7l-1-1-3-24-1-3-1-13-1-1-1-14-1-7-1-11-1-3-3-39-1-12v-15l-1-3-1-50-1-1v-54l1-1v-43l2-3v-20l2-5 1-15 1-6 1-8 2-12 6-27 5-15 7-14 4-5 5 1 4 2 4 6 6 7 8 13 12 24 8 20 4 11v2h2l1-9 1-11 1-2v-11l2-8 1-6 1-2 2-16 1-6 1-3 1-7 3-15 6-25 8-26 8-22 9-16 9-11 4 1 8 10 7 12 7 17 9 27 9 37 1 6 297 1v-11l1-9h135v-19l1-59h-361l-1-1v-568h-106l-14-7-5-4-8-12-1-3v-146l5-8 6-7 9-6 4-2zm1508 231-8 3-7 7 2 1 20-6 1-3-4-2zm-82 64 4 7 5 9 4-2 3-7-14-7zm-11 2-5 3-4 6v15l5 10 6 4h8l5-4 3-9-1-11-4-8-6-5zm-91 761 1 13 5 25 7 21 8 17 14 24 8 16 6 15 5 18 1 7 1 55 2 17 4 11 10 18 10 17 14 27 10 24 6 20 3 19v16l-1 12h27l1-2v-252l2-11 6-9 4-4v-84l-49-1-9-4-8-7-5-10-2-8zm49 404-20 1 3 10 12 34 2 2 10-5 6-2 1-2 1-19 4-11 4-6v-2z" fill="#FAFAFA"/>
<path transform="translate(1611,208)" d="m0 0h9l3 2 6 1 12 7 16 13 12 12h2l8-11 9-6 4-1h11l6 3 9 7 16 1 14 2 12 3 16 6 11 6 10 9 7 10 5 11 2 13 1 1v15l-1 1-1 13-4 14-10 19-6 8-9 8-14 9-12 7-18 7h-2l11 25 7 14 12 18 15 26 9 18 51 1h154l15 5 12 7 10 9 9 13 5 13 2 10 1 1v17l-1 1-2 12-2 9-1 9-1 1-2 13-2 9v6l-2 5-1 9-3 14-2 15-3 12-3 19-3 12-1 10-1 1-1 9-1 1-3 20-1 1-1 9-1 1-1 9-1 7-2 6v6l-3 12-1 3-1 9-2 10-1 2-1 8-1 9-1 1-1 9-3 12-1 9-2 10-1 1-1 9-1 5-3 16-3 15-3 17-2 10-3 19-3 12-3 19-3 13-3 18-2 11-170 1-3 11-6 9-8 6-9 3h-47l1 84 7 8 4 10v260h150l10 4 9 6 7 9 4 9 1 4 1 19 11 4 9 6 7 8 4 8 2 6 1 8-2 12-6 12-7 8-10 6-6 2-12 1-11-2-10-5-9-8-5-8-3-9v-17l4-11 6-8 9-8 13-5v-14l-4-10-7-8-11-5-10-1h-61l-6-1 6 10 3 8 1 5 1 16 11 4 9 6 7 8 5 11 1 5v13l-3 10-7 11-9 7-12 5-5 1h-8l-10-2-11-6-8-8-6-12-2-7v-11l4-13 8-11 10-7 11-4v-12l-4-11-5-7-10-6-3-1h-157l-7 3-6 4-6 7-3 8-2 15 9 2 9 5 8 7 6 10 3 10v12l-4 13-8 11-9 6-10 4-110 1h-329l4-6 11-13 12-11 17-12 18-10 26-12 17-9 19-12 13-9 19-14 13-11 3-4 1-7h-9l-2-7-19-129-23-162-12-91-5-49-3-34v-23l3-17 4-12 9-16 13-14 14-10 18-10 24-12 22-10 16-8 34-16 36-16 28-13 13-6-10-3h-8l-6-2-8-1-7-2-10-4-17-9-5-4-11-9-14-14-7-8-2-3v-8l7-24 5-21 9-34-1-5-11-6-35-8-13-5-11-6-10-8-7-11-3-7-1-5v-22l3-11 5-10 6-10 1-50 3-1h60l20 1v73l-4 9 1 5 11 20 4-2 24 16 16 9 28 14 19 8 19 7 23 7 16 4 10 2h15l12-5 9-6 7-10 8-16 6-14 11-35 12-41 6-18 7-16 7-13 10-14 7-8-1-13-5-21-6-19v-2h-15l-8-6-11-7-10-10-8-13-3-9-6-2-8-7-1-2v-6l4-8-2 1h-7l-6-4-6-9-2-6v-14l4-8 6-4 8-1-11-10-5-5-7-8-7-14-3-16v-15l2-8v-4l5-1 2 3-2 4-1 10-1 2v9l4 15 7 13 9 10 5 4-10-11-8-14-4-10v-20l5-9 5-5 9-5 6-1zm85 25-8 3-7 7 2 1 20-6 1-3-4-2zm-82 64 4 7 5 9 4-2 3-7-14-7zm-11 2-5 3-4 6v15l5 10 6 4h8l5-4 3-9-1-11-4-8-6-5zm-91 761 1 13 5 25 7 21 8 17 14 24 8 16 6 15 5 18 1 7 1 55 2 17 4 11 10 18 10 17 14 27 10 24 6 20 3 19v16l-1 12h27l1-2v-252l2-11 6-9 4-4v-84l-49-1-9-4-8-7-5-10-2-8zm49 404-20 1 3 10 12 34 2 2 10-5 6-2 1-2 1-19 4-11 4-6v-2z" fill="#00AE76"/>
<path transform="translate(1486,799)" d="m0 0 9 1 19 7 24 11 10 6 27 14 6 3v3l5-1 7 3 19 5 1 2-1 2h3l1-3 18 3 1 2-11 58-8 43-3 6-10 2-25 4-16 5-12 5-14 10-9 9-8 13-6 20-1 9v21l6 32 6 19 6 15 12 22 10 17 9 21 6 21 1 7 1 55 2 17 4 11 10 18 10 17 14 27 10 24 6 20 3 19v16l-2 12 27-1v-253l2-11 6-9 4-4 1-84h-49l-9-4-8-7-5-8-1-3v-7l59-1h104l29 1-1 9-6 10-9 7-9 3h-47l1 84 7 8 4 10v260h150l10 4 9 6 7 9 4 9 1 4 1 19 11 4 9 6 7 8 4 8 2 6 1 8-2 12-6 12-7 8-10 6-6 2-12 1-11-2-10-5-9-8-5-8-3-9v-17l4-11 6-8 9-8 13-5v-14l-4-10-7-8-11-5-10-1h-61l-6-1 6 10 3 8 1 5 1 16 11 4 9 6 7 8 5 11 1 5v13l-3 10-7 11-9 7-12 5-5 1h-8l-10-2-11-6-8-8-6-12-2-7v-11l4-13 8-11 10-7 11-4v-12l-4-11-5-7-10-6-3-1h-157l-7 3-6 4-6 7-3 8-2 15 9 2 9 5 8 7 6 10 3 10v12l-4 13-8 11-9 6-10 4-110 1h-329l4-6 11-13 12-11 17-12 18-10 26-12 17-9 19-12 13-9 19-14 13-11 3-4 1-7h-9l-2-7-19-129-23-162-12-91-5-49-3-34v-23l3-17 4-12 9-16 13-14 14-10 18-10 24-12 22-10 16-8 34-16 36-16 28-13zm75 665-20 1 3 10 12 34 2 2 10-5 6-2 1-2 1-19 4-11 4-6v-2z" fill="#1F2564"/>
<path transform="translate(173,755)" d="m0 0 4 1 8 10 7 12 7 17 9 27 9 37 3 9 4 20 2 11 1 19 1 2 1 12 1 2 1 13 1 2v13l2 5v14l2 11 1 18 1 8v20l2 2v48l1 2v61l-1 3v23l-2 43-4 44-1 5-1 14-1 2-1 11-2 9h57l1 1v264l-5 12-4 6-5 4-12 5h-235l-14-7-6-7-5-11v-267h54l-3-8v-7l-1-1-3-24-1-3-1-13-1-1-1-14-1-7-1-11-1-3-3-39-1-12v-15l-1-3-1-50-1-1v-54l1-1v-43l2-3v-20l2-5 1-15 1-6 1-8 2-12 6-27 5-15 7-14 4-5 5 1 4 2 4 6 6 7 8 13 12 24 8 20 4 11v2h2l1-9 1-11 1-2v-11l2-8 1-6 1-2 2-16 1-6 1-3 1-7 3-15 6-25 8-26 8-22 9-16z" fill="#A8E5D2"/>
<path transform="translate(1611,208)" d="m0 0h9l3 2 6 1 12 7 16 13 12 12h2l8-11 9-6 4-1h11l6 3 9 7 16 1 14 2 12 3 16 6 11 6 10 9 7 10 5 11 2 13 1 1v15l-1 1-1 13-4 14-10 19-6 8-9 8-14 9-12 7-18 7h-2l11 25 7 14 12 18 15 26 9 19-1 1-40 1-17 5-14 9-12 12-8 14-4 14-3 17-8 43-9 47-9 49-23 122-4 21-16-1-5-1-1 2h-3v-3l-13-3-7-3-8-2h-3l-1-3-38-19-10-6-25-11-15-5-16-4h-8l-6-2-8-1-7-2-10-4-17-9-5-4-11-9-14-14-7-8-2-3v-8l7-24 5-21 9-34-1-5-11-6-35-8-13-5-11-6-10-8-7-11-3-7-1-5v-22l3-11 5-10 6-10 1-50 3-1h60l20 1v73l-4 9 1 5 11 20 4-2 24 16 16 9 28 14 19 8 19 7 23 7 16 4 10 2h15l12-5 9-6 7-10 8-16 6-14 11-35 12-41 6-18 7-16 7-13 10-14 7-8-1-13-5-21-6-19v-2h-15l-8-6-11-7-10-10-8-13-3-9-6-2-8-7-1-2v-6l4-8-2 1h-7l-6-4-6-9-2-6v-14l4-8 6-4 8-1-11-10-5-5-7-8-7-14-3-16v-15l2-8v-4l5-1 2 3-2 4-1 10-1 2v9l4 15 7 13 9 10 5 4-10-11-8-14-4-10v-20l5-9 5-5 9-5 6-1zm85 25-8 3-7 7 2 1 20-6 1-3-4-2zm-82 64 4 7 5 9 4-2 3-7-14-7zm-11 2-5 3-4 6v15l5 10 6 4h8l5-4 3-9-1-11-4-8-6-5z" fill="#A8E5D2"/>
<path transform="translate(0,1305)" d="m0 0h54l1 1h172l58-1 1 1v264l-5 12-4 6-5 4-12 5h-235l-14-7-6-7-5-11z" fill="#31A17C"/>
<path transform="translate(188,2)" d="m0 0h293l12 3 10 6 8 9 5 10 1 80 1 4v49l-1 114-5 1-9-10-9-11-12-14-9-10-9-11-11-12-6-7-3-2-154-1-106-1-14-7-5-4-8-12-1-3v-146l5-8 6-7 9-6 4-2z" fill="#00AE76"/>
<path transform="translate(515,855)" d="m0 0h1v11h490l1-2v2l336-1-3 3-23 11-19 10-14 10-6 5-317 1-1 674h-33v-675h-701l-6-33-1-6 296 1z" fill="#FAFAFA"/>
<path transform="translate(1333,1453)" d="m0 0h147l57 1 4 9 20 1v1h-20l11 30 5 14h3l8-4 7-2h14l11 4 9 6 7 8 5 12 1 4v12l-4 13-8 11-9 6-10 4-110 1h-329l4-6 11-13 12-11 17-12 18-10 26-12 17-9 19-12 13-9 19-14 13-11 3-4 1-6z" fill="#428EFD"/>
<path transform="translate(1461,1)" d="m0 0 196 1 10 4 8 8 4 9 1 72v105l-4-2-12-14-9-11-10-11-7-8-9-10-183-1-9-2-9-6-6-9-1-3v-103l6-9 7-6 7-3z" fill="#FAFAFA"/>
<path transform="translate(1611,208)" d="m0 0h9l3 2 6 1 12 7 16 13 12 12h2l8-11 9-6 4-1h11l6 3 9 7 16 1 14 2 12 3 16 6 11 6 10 9 7 10 5 11 2 13 1 1v15l-1 1-1 13-4 14-10 19-6 8-9 8-14 9-12 7-18 7-17-2-10-2-8 5-16 5-4 5-2 1h-15l-8-6-11-7-10-10-8-13-3-9-6-2-8-7-1-2v-6l4-8-2 1h-7l-6-4-6-9-2-6v-14l4-8 6-4 8-1-11-10-5-5-7-8-7-14-3-16v-15l2-8v-4l5-1 2 3-2 4-1 10-1 2v9l4 15 7 13 9 10 5 4-10-11-8-14-4-10v-20l5-9 5-5 9-5 6-1zm85 25-8 3-7 7 2 1 20-6 1-3-4-2zm-82 64 4 7 5 9 4-2 3-7-14-7zm-11 2-5 3-4 6v15l5 10 6 4h8l5-4 3-9-1-11-4-8-6-5z" fill="#31A17C"/>
<path transform="translate(701,768)" d="m0 0h102l61 1-1 5-2 5v24l3 26v11l-1 4h6l1 1 136 1v20h-490v-20l135-1 2-1h9l-4-5-1-6 1-8 1-18 1-10v-23l3-4 11 1 3 2-9 9v4l5-1 3 1 2 8h7l1 2 18 2 4 3 12 1 6 2 8-2h5v-3l8-3 2-3 6-2 2-2-1-3-5-1-9-3h-2v-2l-5-1h-4v-2l-9-1-28-1-9 1-3-4 10-3z" fill="#D7D8D8"/>
<path transform="translate(1333,1453)" d="m0 0h147l57 1 4 9 20 1v1h-20l11 30 5 14h3l8-4 7-2h14l11 4 9 6 7 8 5 12 1 4v12l-4 13-8 11-9 6-10 4h-109l-6-13-17-49-10-28-9-24-4-13-104-1z" fill="#287CD7"/>
<path transform="translate(769,505)" d="m0 0h9l16 3 12 5 11 7 11 11 8 13 4 10 2 10v20l-4 16-9 16-7 8-12 9-15 7-15 3h-13l-14-3-12-5-11-7-11-11-8-13-5-15-1-6v-18l4-16 8-15 9-10 8-7 16-8 11-3z" fill="#EF5151"/>
<path transform="translate(1722,235)" d="m0 0 18 2 8 1 12 3 16 6 11 6 10 9 7 10 5 11 2 13 1 1v15l-1 1-1 13-4 14-10 19-6 8-9 8-14 9-12 7-18 7-17-2-10-2-8 5-16 5-4 5-2 1h-15l-7-6 1-6 4-4 5-1h8l7 3 1 1 9-1 10-4v-3l-8-7-6-8-4-10-1-5v-12l4-13 4-6 15-10 9-4 7-1v11l8 1-2-52-5-21-6-13v-3z" fill="#31A17C"/>
<path transform="translate(1326,488)" d="m0 0h62l20 1v73l-4 9 1 5 11 20-2 11-7 25-4 16-6-2-7-4-35-8-13-5-11-6-10-8-7-11-3-7-1-5v-22l3-11 5-10 6-10 1-50z" fill="#FDB7B2"/>
<path transform="translate(651,845)" d="m0 0h219l136 1v20h-490v-20z" fill="#30A17B"/>
<path transform="translate(300,212)" d="m0 0h5l1 1 1 461 42 1-2 1v2l-16 3-9 2-1 3 5 2 4 4 6-1 10 3-1 4-7 7-4 10v11l6 12 6 5 12 5 1 5-6-1v3l3 1-1 4-14 4-8 1h-35l-2-2v-63l1-19-1-8 1-30v-382l-1-22v-6l1-5v-8z" fill="#D8D8D8"/>
<path transform="translate(1607,295)" d="m0 0 8 3 5 7 3 7 3-1 4-7 15 2h21l18-2 4 12 6 9-7 14-2 8v12l4 13 6 9 10 9-4 4-12 4h-5l-4-3-4-1h-8l-6 2-3 5-2 3-11-7-10-10-8-13-3-9-6-2-8-7-1-2v-6l4-8-2 1h-7l-6-4-6-9-2-6v-14l4-8 6-4zm-4 4-5 3-4 6v15l5 10 6 4h8l5-4 3-9-1-11-4-8-6-5z" fill="#FDB7B2"/>
<path transform="translate(1326,488)" d="m0 0h62l20 1v73l-4 9-2 3-4-2-8-10-4-6h-2l-3 12-6 10-4 2h-9l-5-3-5-6-4-15v-25l-10 4-10 7-4 1 1-54z" fill="#02AE76"/>
<path transform="translate(1720,313)" d="m0 0h3v11l9 1 1-10 3-1 10 5 8 6 7 10 4 10 1 4v9l-3 10-6 10-6 7-10 6-11 4h-15l-5-1-8 5-16 5-4 5-2 1h-15l-7-6 1-6 4-4 5-1h8l7 3 1 1 9-1 10-4v-3l-8-7-6-8-4-10-1-5v-12l4-13 4-6 15-10 9-4z" fill="#1F2664"/>
<path transform="translate(1790,1503)" d="m0 0h15l11 4 9 6 7 8 5 11 1 5v13l-3 10-7 11-9 7-12 5-5 1h-8l-10-2-11-6-8-8-6-12-2-7v-11l4-13 8-11 10-7z" fill="#FAFAFA"/>
<path transform="translate(1893,1503)" d="m0 0h15l11 4 9 6 7 8 4 8 2 6 1 8-2 12-6 12-7 8-10 6-6 2-12 1-11-2-10-5-9-8-5-8-3-9v-17l4-11 6-8 9-8z" fill="#FAFAFA"/>
<path transform="translate(1574,1503)" d="m0 0h15l11 4 9 6 7 8 5 12 1 4v12l-4 13-8 11-9 6-10 4h-8l-11-29-13-37-2-6 8-5z" fill="#F9FAFA"/>
<path transform="translate(1710,393)" d="m0 0 10 2 11 1 4 2 11 25 5 12-23 7-16 8-10 7-5 5-4 2-4-22-8-28-1-5 5-5 9-3 12-5z" fill="#FDB7B2"/>
<path transform="translate(759,555)" d="m0 0h22l11 3 12 5 12 9 6 7 1 8-3 8-6 4-8-1-14-7-4-5 1-9 2-5-6-3-14-2-18 2 1 7 2 5-1 6-5 5-12 3h-9l-6-4-2-4v-9l3-5 9-8 14-7z" fill="#FBF3F3"/>
<path transform="translate(1692,225)" d="m0 0h11l6 3 9 7 4 10 5 14 3 14 1 20v31l-7-1v-45l-3-17-4-12-6-9-3-3h-4v-2l-8-1-8 3-7 8-5 5-3 4-3-1v-9l9-12 9-6z" fill="#C4DDD5"/>
<path transform="translate(1705,390)" d="m0 0v3l3 2-6 4-16 5-4 5-2 1h-15l-7-6 1-6 4-4 5-1h8l7 3 1 1 9-1 10-4z" fill="#203168"/>
<path transform="translate(1580,214)" d="m0 0 4 1 1 2-2 4-1 10-1 2v9l4 15 7 13 9 10 6 7 2 4 2 1v2l-4-1-8-7-5-4-8-10-7-14-3-16v-15l2-8v-4z" fill="#12AF7C"/>
<path transform="translate(1692,225)" d="m0 0h11l6 3 8 7-4 1-4-1-4-4-9-1-7 2h3l4 1-4 2-6 4-5 6-5 5-3 4-3-1v-9l9-12 9-6z" fill="#FAFAFA"/>
<path transform="translate(1607,295)" d="m0 0 8 3 5 7 3 7 9 2 7 1-1 3-14-1-2 6-2-4-2-9-6-8-4-2-8 1-4 5-1 2v15l5 10 5 3h10l-3 5h-7l-6-4-6-9-2-6v-14l4-8 6-4z" fill="#F9FAFA"/>
<path transform="translate(398,90)" d="m0 0 7 1 5 6v5l-8 7-5-1-5-5-1-7 5-5z" fill="#F2F8F6"/>
<path transform="translate(334,90)" d="m0 0 8 1 5 6-1 6-5 5-5 1-6-4-2-3 1-7z" fill="#F3F8F7"/>
<path transform="translate(271,90)" d="m0 0h6l5 4 1 2v7l-6 5h-6l-5-4-1-7 4-6z" fill="#F4F9F7"/>
<path transform="translate(1548,62)" d="m0 0 7 1 5 5v6l-4 5-2 1h-6l-5-5-1-5 3-6z" fill="#04AD76"/>
<path transform="translate(1503,62)" d="m0 0 7 1 4 5 1 4-4 6-2 2h-6l-6-5v-7l4-5z" fill="#04AD76"/>
<path transform="translate(1594,62)" d="m0 0 6 1 5 5v6l-4 5-7 1-6-5-1-4 2-5z" fill="#03AD76"/>
<path transform="translate(1726,277)" d="m0 0 3 1 1 16v22l1 2v6l-7-1v-10l1-1z" fill="#D8D8D8"/>
<path transform="translate(809,782)" d="m0 0 14 2 1 5-4 3h-16l-2-2v-3h2l2-4z" fill="#FBFBFB"/>
<path transform="translate(516,846)" d="m0 0h7l-1 7 2 7h3v3l4 2h-10l-5-1z" fill="#00AE76"/>
<path transform="translate(1670,308)" d="m0 0 3 3 2 8v15l-5 10-5 4-2 1h-9l-6-4v-2l6 2h9l6-5 3-7 1-10-3-11z" fill="#FBFBFB"/>
<path transform="translate(694,841)" d="m0 0h34l2 1v2h-43l2-2z" fill="#FBFBFB"/>
<path transform="translate(1580,214)" d="m0 0 4 1 1 2-2 4-1 10-2 10-3-4-1-10 2-8v-4z" fill="#38A581"/>
<path transform="translate(1719,251)" d="m0 0h2l2 5 1 7 1 1 1 12v36l-2 1v-35l-3-17z" fill="#B7E0D3"/>
<path transform="translate(1727,290)" d="m0 0 3 4v28h-5l2-14z" fill="#FBFBFB"/>
<path transform="translate(1673,241)" d="m0 0h7l1 4-5 5-3 4-3-1v-9z" fill="#E4F4EF"/>
<path transform="translate(1791,258)" d="m0 0 4 2 8 10 6 13-1 4-7-11-2-4-1-5-7-6z" fill="#0BAD78"/>
<path transform="translate(1e3 846)" d="m0 0h6v19l-4-1v-12z" fill="#00AE76"/>
<path transform="translate(1705,390)" d="m0 0v3l3 2-6 4-8 3h-5l2-2 10-3v-2l-11 4h-5l4-2 14-5z" fill="#2B88B7"/>
<path transform="translate(283,1305)" d="m0 0h2v14l-2-2-2-9-20-1v-1z" fill="#05B079"/>
<path transform="translate(1720,248)" d="m0 0 4 5 3 14 1 5v9l-2-4-1-1-1-12-1-1-2-10z" fill="#FBFBFB"/>
<path transform="translate(1743,391)" d="m0 0h7l-3 3-10 4-4-2 1-2z" fill="#05AD76"/>
<path transform="translate(1580,214)" d="m0 0 4 1 1 2-3 6-5 1 1-9z" fill="#10AC79"/>
<path transform="translate(1674,241)" d="m0 0h6l1 4-6 5-1-3z" fill="#D0DAD7"/>
<path transform="translate(1328,1454)" d="m0 0h4l-2 4-4 4-2-1 1-6z" fill="#E2F4EE"/>
<path transform="translate(1738,391)" d="m0 0 2 1-6 3 1 3-15-2v-1l13-2z" fill="#2E9793"/>
<path transform="translate(1724,313)" d="m0 0h2l1 4-2 5h5l1-4v6l-7-1z" fill="#C3DDD5"/>
<path transform="translate(1791,258)" d="m0 0 4 2 6 8-4-2-6-5z" fill="#08AC77"/>
</svg>
