<?xml version="1.0" encoding="UTF-8"?>
<svg version="1.1" viewBox="0 0 2048 1752" width="1280" height="1280" xmlns="http://www.w3.org/2000/svg">
<path transform="translate(1106,151)" d="m0 0h820v6l-1 1-29 1-2 16-1 1h-6l-2-5v-13h-15v33h20v639l-2 1h-71l-303 1-12 84-9 65-12 88v7l36 1h195l35-1h125l1 2v72l-1 1h-22v127h22l1 4v70l-1 1h-22v188h-24v-188h-82v187l-2 1h-19l-1-1v-188l-280 1-2 8-9 66-16 113 3 1h-3l-3 21-4 18-5 15-9 19-6 10v3l7 1v1l-12 2-10 13-5 5 51 2 125 4 124 6 37 2 42 3 60 5 39 4 46 6 31 6 17 6 6 4 1 3-5 4-14 5-21 5-38 6-53 6-37 3-50 4-52 3-29 2-90 4-76 3-161 4-45 1-130 2h-234l-43-1-68-1-136-3-103-3-54-2-35-2-70-3-10-1-20-1-43-3-27-2-26-2-58-6-43-6-29-6-16-6-4-2-1-3 5-5 15-6 29-6 59-8 65-6 58-4 27-2 143-7 60-2-2-5-8-14-5-11-4-14-3-16v-31l2-4h151l-3-17h-6l4-2 1-3-2-13v-8h-464v26h-127l-1-213 1-127 264-1 4-1v-5l-7-9-3-9-1-25v-58l3-9 7-8 3-5h-7l-4-3-1-16 3-5 2-1h34l157 1 4 3 1 5v9l-3 5-9 3 7 8 5 9 1 5v74l-2 13-6 9-7 6-6 3-1 2h115v-86l4-83 2-29 1-12 1-22 2-22 2-28 1-8v-7l1-9 2-21 3-36 1-7v-13l-13-17-12-17-8-11v-2l-12 6-6-1-6-4-3-4v-9l-14 9-28 22-14 10-16 11-12 6-17 5-12 2-16-16h-47l-27-3-24-5-24-7-24-10-20-10-16-10-17-12-13-11-15-14-13-14-9-11-13-18-11-19-8-16-8-18-6-18-6-23-4-23v-7h-31v-335l1-1h319l1 1v30l27 3 26 5 26 8 22 9 16 8 11 6 18 12 13 10 15 13 19 19 9 11 5 5-2-9v-19l2-10 5-10 7-8 14-9 15-5 14-3 21-3 6-9 10-7 12-5 9-2h26l15 4 16 8 12 9 10 9 10 13 7 12 7 19 3 19v16l-3 17-5 20v9l4 12 8 11 8 8 17 13 19 14 16 13 10 9 12 12 12 17 10 17 5-2 8-7 11-8 9-5 2-7h8l16-5 17-5 18-3 2-1v-29l-10-1-1-1-1-312-4-3v-4zm-913 97v269h5l6-40 6-24 9-26 14-29 4-7-1-6-4-11-1-5v-14l4-13 7-12 9-9 10-6 10-3 4-1h15l13 3 16-11 14-9 18-10 15-7 26-10 25-6 9-3 4-2 1 1h9l17-2 3-1 1-5-1-1zm1e3 224-39 1-1 1v23l1 1h204v-25l-66-1zm230 1 2 6 9 18 2 1h65l-3-10-7-14-1-1zm92 0 1 5 9 19 2 1h71l1-1v-24zm27 171-3 17 1 6-3 1-4 12-2 13v7l7 17 8 16 11 23 9 19 11 24 2 2h20v-102l-9-19-8-16-9-19-1-1zm110 0-1 16v97l2 9 13 28 4 7h97l-2-6-20-41-9-20-8-16-18-38-11-23-6-13zm-959 57-6 7-2 4 4 6 4 2 2 4 4 3v-9l-3-17zm3 33-6 8 2 4 2 3h4l1-6v-8zm186 48 1 14 3 30 2 39 1 67 1 15 7 7 7 8 10 11 7 8 3 3h2l7-48 15-109 6-41v-4l-24 3h-16zm-96 266-2 2-2 5-1 1-1 33-2 2-1 42v9l-2 2v6l2 4-4 2v12l1 6-2 7v20l9 5h24l5-2 12-2 1-1-1-9-6-18-5-18-3-7h-4v-3h2v-14l-2-6-1-9-2-5-3-19-3-17-2-14-3-13zm108 14 3 26 6 34 3 3 3-17 2-14v-14l2-5-10-9-7-4zm575 88-2 5-12 85-5 38 3 1h267l1-1v-127l-1-1zm275 1-1 1v126h79l3-1v-126zm-950 363-17 1v43l5 1h59l5-2 2-13-3-8-6-21-8-1z" fill="#A8E5D1"/>
<path transform="translate(170,223)" d="m0 0h319l1 1v30l27 3 26 5 26 8 22 9 16 8 11 6 18 12 13 10 15 13 19 19 9 11 5 5-2-9v-19l2-10 5-10 7-8 14-9 15-5 14-3 21-3 6-9 10-7 12-5 9-2h26l15 4 16 8 12 9 10 9 10 13 7 12 7 19 3 19v16l-3 17-5 20v9l4 12 8 11 8 8 17 13 19 14 16 13 10 9 12 12 12 17 9 15 1 6-7 8-12 14-11 17-10 21-6 20-5 30-16 114-2 9-8 2-16 2h-16l-29-3-3-1 4 32 3 50 1 68 1 15 7 7 7 8 10 11 7 8 3 5v11l-9 64-2 11-4 1-10-8-6-3 1 2 5 37 5 25-1 12-7 50-13 93-5 36-2 3-3-4-9-19-8-16-13-27-15-36-6-16-3-12-10-34-2-6-4-1v-3h2l-1-14-2-6-1-9-2-5-3-19-3-17-2-14-3-13-4 1-2 5-1 1-1 33-2 2-1 42v9l-2 2v6l2 4-5 2 2 18-2 7v20l1 2v172l2 113 1 28v42h-59l-2-3-2-14h-6l4-2 1-3-2-13v-8h-464v26h-127l-1-213 1-127 264-1 4-1v-5l-7-9-3-9-1-25v-58l3-9 7-8 3-5h-7l-4-3-1-16 3-5 2-1h34l157 1 4 3 1 5v9l-3 5-9 3 7 8 5 9 1 5v74l-2 13-6 9-7 6-6 3-1 2h115v-86l4-83 2-29 1-12 1-22 2-22 2-28 1-8v-7l1-9 2-21 3-36 1-7v-13l-13-17-12-17-8-11v-2l-12 6-6-1-6-4-3-4v-9l-14 9-28 22-14 10-16 11-12 6-17 5-12 2-16-16h-47l-27-3-24-5-24-7-24-10-20-10-16-10-17-12-13-11-15-14-13-14-9-11-13-18-11-19-8-16-8-18-6-18-6-23-4-23v-7h-31v-335zm23 25v269h5l6-40 6-24 9-26 14-29 4-7-1-6-4-11-1-5v-14l4-13 7-12 9-9 10-6 10-3 4-1h15l13 3 16-11 14-9 18-10 15-7 26-10 25-6 9-3 4-2 1 1h9l17-2 3-1 1-5-1-1zm501 453-6 7-2 4 4 6 4 2 2 4 4 3v-9l-3-17zm3 33-6 8 2 4 2 3h4l1-6v-8z" fill="#1D3239"/>
<path transform="translate(1106,151)" d="m0 0h820v6l-1 1-29 1-2 16-1 1h-6l-2-5v-13h-15v33h20v639l-2 1h-71l-304 1 1-13 16-112 1-11 2 4 7 17 8 16 11 23 9 19 11 24 1 1 20 1-1-102-9-19-8-16-9-20h80v113l2 9 13 28 3 6 97 1-12-24-13-28-19-39-13-28-12-25-5-13 122-1 3-1v-25l-1-13-4-18-6-15-7-14-10-13-4-4v-2l-4-2-10-9-15-9-16-7-17-5-6-1-28-1h-561l-11 1-9 1 1-2 9-2v-29l-10-1-1-1-1-312-4-3v-4zm88 321-39 1-1 1v23l1 1h204v-25l-66-1zm230 1 2 6 9 18 2 1h65l-3-10-7-14-1-1zm92 0 1 5 9 19 2 1h71l1-1v-24z" fill="#FAFBFA"/>
<path transform="translate(384,1046)" d="m0 0h34l157 1 4 3 1 5v9l-3 5-9 3 7 8 5 9 1 5v74l-2 13-6 9-7 6-6 3-1 2h115v-29h1l2 46 6 67 9 79 10 76 9 64 1 11h-464v26h-127l-1-213 1-127 264-1 4-1v-5l-7-9-3-9-1-25v-58l3-9 7-8 3-5h-7l-4-3-1-16 3-5z" fill="#FAFAFA"/>
<path transform="translate(468,298)" d="m0 0h13l31 3 24 5 17 5 26 11 18 10 16 11 14 11 12 11 11 11 11 14 10 14 11 19 9 19 7 19 6 24-1 4-22 5-6 8-7 16-7 24-4 20 1 5 11 7v2l5 2 9 8 4 34 1 5-5 12-11 19-12 17-11 13-9 10-5 5-13 12-18 13-19 11-23 11-24 8-17 4-19 3-14 1h-26l-19-2-22-4-24-7-20-8-21-11-18-12-10-8-20-18-7-8-11-13-14-21-10-18-8-19-8-24-5-24-2-19v-35l3-24 6-25 7-20 9-20 8-14 8-12 12-16 15-16 5-5h2v-2l11-9 10-8 15-10 16-9 17-8 27-9 24-5z" fill="#C6FDEB"/>
<path transform="translate(1367,1648)" d="m0 0 3 1 17 1 130 4 92 4 96 5 42 3 60 5 39 4 46 6 31 6 17 6 6 4 1 3-5 4-14 5-21 5-38 6-53 6-37 3-50 4-52 3-29 2-90 4-76 3-161 4-45 1-130 2h-234l-43-1-68-1-136-3-103-3-54-2-35-2-70-3-10-1-20-1-43-3-27-2-26-2-58-6-43-6-29-6-16-6-4-2-1-3 5-5 15-6 29-6 59-8 65-6 58-4 27-2 143-7 60-2h3l15 16 14 10 14 8 15 6 10 3 7 1 49 1h547l21-2 23-7 25-12 12-8 14-11 9-8h2z" fill="#FAFBFA"/>
<path transform="translate(695,819)" d="m0 0 7 6 18 24 8 10 13 17 10 12 10 13 13 16 9 11 11 13 9 11 12 14 11 13 9 11 8 9 9 11 12 13 9 11 10 11 14 16-2 1 1 2 5 37 5 25-1 12-7 50-13 93-5 36-2 3-3-4-9-19-8-16-13-27-15-36-6-16-3-12-10-34-2-6-4-1v-3h2l-1-14-2-6-1-9-2-5-3-19-3-17-2-14-3-13-4 1-2 5-1 1-1 33-2 2-1 42v9l-2 2v6l2 4-5 2 2 18-2 7v20l1 2v172l2 113 1 28v42h-59l-2-3-2-14h-6l4-2 1-3-2-13-2-19-14-101-9-73-7-66-4-46-2-46v-57l4-83 2-29 1-12 1-22 2-22 2-28 1-8v-7l1-9 2-21 3-36z" fill="#02499A"/>
<path transform="translate(1479,1073)" d="m0 0 2 3 36 1h195l35-1h125l1 2v72l-1 1h-22v127h22l1 4v70l-1 1h-22v188h-24v-188h-82v187l-2 1h-19l-1-1v-188l-281 1-1-2 10-70 1-3h270v-127h-251l-2 4 1-11 8-55zm266 78-1 1v126h79l3-1v-126z" fill="#FAFBFA"/>
<path transform="translate(777,298)" d="m0 0 4 1 10 9 13 8 18 10 4 15 5 16 5 12 7 10 6-2h8l6 4 3 5v7l-3 6-4 5-8 5-9 3-11 12-11 8-3 2v19l3 14 4 10 3 4 23 1 36 5 15 4 10 9 8 14 12 25 4 12-2 6-11 11v14l6 59 4 43v21l-4 11-7 11-10 10-15 10-19 10-28 11-29 9-45 11-10 4-6 1h-51l-5-12-6-17v-4l4-2-1-5-4-4h3v-14l-2-1-1-10 3 2-1-16-1-9-3-1 6-10 9-14 14-25 8-19 8-24 7-29 4-29 1-3v-33l-3-26v-7h8l10-5 5-4 4-8 1-4v-15l-2-6-17-9-8-8-8-16-2-10v-18l4-23 5-16 8-17 2-2h7l5 1-1-3-7-3 2-5 9-9z" fill="#00AC77"/>
<path transform="translate(823,1201)" d="m0 0 2 1 10 26 13 30 16 33 8 16 4 9 2 5 1 1-1 14-6 45-5 39-11 76-4 26-2 16-1 3-3-1-6-23v-2h-45l-18 1-1-28-2-113v-173l5 2 7 1h20l5-2z" fill="#F9FAFA"/>
<path transform="translate(777,298)" d="m0 0 4 1 10 9 13 8 18 10 4 15 5 16 5 12 7 10 6-2h8l6 4 3 5v7l-3 6-4 5-8 5-9 3-11 12-11 8-3 2v19l3 14 4 10 3 4 14 1 3 2v12l-5 16-9 19-14 21-8 10-11 12-5 5-4-1-9-14-6-7-10-8-4 1-6 4h-2v-40l-3-26v-7h8l10-5 5-4 4-8 1-4v-15l-2-6-17-9-8-8-8-16-2-10v-18l4-23 5-16 8-17 2-2h7l5 1-1-3-7-3 2-5 9-9z" fill="#FCB575"/>
<path transform="translate(170,223)" d="m0 0h319l1 1v30l3 1-35 1-8 1h-10v-1l20-2v-5l-267-1v269h5l1-12 2-16h1l-1 20-1 13v37h-31v-335z" fill="#FAFAFA"/>
<path transform="translate(874,757)" d="m0 0 4 1 5 21v2l2 1h-2l4 32 3 50 1 82-6-4-9-10-7-7-7-8-7-7-7-8-10-10-7-8-12-12-7-8-24-24v-2l-4-2-42-42-1-2h18l9-2 14-5 38-9 35-11z" fill="#03499A"/>
<path transform="translate(1082,728)" d="m0 0h14l16 4 12 7 7 6 7 10 4 9 2 10v15l-3 14-8 16-7 9-10 10-13 8-13 5-11 2h-14l-10-2-12-5-9-7-6-7-8-16-2-10v-14l3-14 8-16 7-9 10-10 13-8 13-5z" fill="#F8FAF9"/>
<path transform="translate(1028,1105)" d="m0 0h17l13 3 11 6 9 7 7 10 5 12 2 12-1 14-3 12-7 14-7 9-6 7-11 8-14 7-11 3h-24l-13-4-11-7-7-7-8-14-3-11v-21l3-11 4-10 9-13 11-11 13-8 9-4z" fill="#F8FAF9"/>
<path transform="translate(1061,916)" d="m0 0 13 1 13 4 10 6 10 9 7 12 4 16v12l-3 14-5 12-8 12-12 12-14 9-15 5-5 1h-20l-11-3-12-6-11-11-7-14-3-10v-19l3-12 8-16 8-10 8-8 11-7 11-5 11-3z" fill="#F8FAF9"/>
<path transform="translate(919,569)" d="m0 0 2 2 8 80 3 33v21l-4 11-7 11-10 10-15 10-19 10-28 11-29 9-45 11-10 4-6 1h-51l-5-12-6-17v-4l18-5 11-3 7 1 29 13 6-1 23-8 25-9 26-12 16-8 14-8 11-8 6-5 5-7-1-14-9-64-1-8v-9z" fill="#FCB575"/>
<path transform="translate(1050,633)" d="m0 0 368 1 8 2 2 3v10l-3 3-3 1h-323l-49 1-6-3-2-3v-11l5-3z" fill="#2CA07C"/>
<path transform="translate(1249,764)" d="m0 0h142l57 1 5 4 2 4-1 7-6 7-6 2h-223l-5-3-3-6 1-7 4-6 3-2z" fill="#2CA07C"/>
<path transform="translate(1196,1184)" d="m0 0h147l29 1 5 6v8l-4 6-5 3-12 1h-55l-141-1-6-5-1-2 1-9 4-5 3-2z" fill="#2CA07C"/>
<path transform="translate(1188,996)" d="m0 0h190l5 4 2 9-5 8-5 3h-189l-6-5-1-2 1-9 6-7z" fill="#2CA07C"/>
<path transform="translate(704,485)" d="m0 0h1l2 10 2 18v36l-3 22-6 26-5 15-4 10-3 2-2-4-4-34-8-7-5-3-3-3-9-6-1-5 5-24 7-23 8-16 5-6 12-3 10-2z" fill="#01A978"/>
<path transform="translate(1245,807)" d="m0 0h108l31 1 5 4 1 2v8l-3 5-5 4-6 1h-161l-6-3-3-4v-8l4-6 5-3z" fill="#2CA07C"/>
<path transform="translate(1169,1141)" d="m0 0h136l5 4 2 5-1 7-5 7-6 2h-132l-6-3-3-5v-7l3-5 4-4z" fill="#2CA07C"/>
<path transform="translate(1060,908)" d="m0 0 18 1 15 5 11 7 6 5 9 13 6 14 1 6v23l-5 16-8 15-12 14-13 10-16 8-8 3-15 2-16-1-13-4-11-6-8-6-8-10-6-12-3-11v-24l3-12 5-12 9-13 13-13 14-9 12-5 11-3zm1 8-13 2-12 4-13 7-12 11-8 10-8 16-3 12v19l5 15 6 10 10 10 14 7 9 2h20l15-4 12-6 10-8 10-10 8-13 5-13 2-11v-12l-4-16-7-12-7-7-11-7-10-4-12-2z" fill="#2BA07B"/>
<path transform="translate(1082,720)" d="m0 0h18l15 4 12 6 12 11 8 13 4 11 2 11v11l-4 18-8 16-6 9-9 10-14 10-14 7-11 3-6 1h-18l-16-4-11-6-9-7-8-10-6-12-3-12v-21l4-15 8-16 6-8 7-8 13-10 14-7 13-4zm0 8-16 4-16 8-12 11-7 8-8 14-4 12-1 7v14l3 13 7 13 9 10 12 7 9 3 7 1h14l14-3 12-5 12-8 12-12 8-13 5-13 2-10v-15l-3-13-6-11-7-8-14-9-12-4-6-1z" fill="#2CA07C"/>
<path transform="translate(1027,1097)" d="m0 0h22l14 4 13 7 8 7 8 11 5 11 3 13v16l-4 17-8 16-8 10-5 6-13 10-16 8-9 3-17 2-18-2-13-5-11-7-7-7-7-11-4-9-3-17v-9l3-16 5-12 6-11 11-12 9-8 14-8 13-5zm1 8-16 4-13 7-9 7-9 9-8 12-6 16-1 5v21l4 13 7 12 8 8 12 7 11 3h24l14-4 16-9 10-9 9-12 7-14 3-12 1-14-2-12-5-12-8-11-13-9-9-4-10-2z" fill="#2BA07B"/>
<path transform="translate(828,482)" d="m0 0h13l3 2v12l-5 16-9 19-14 21-8 10-11 12-5 5-4-1-9-14-6-7-10-8 1-3 12-7 9-7 14-12 10-11 13-18z" fill="#F8FAF9"/>
<path transform="translate(1313,953)" d="m0 0h112l5 3 3 4v7l-4 6-4 3-3 1-80 1-30-1-6-3-2-3v-9l7-8z" fill="#2CA07C"/>
<path transform="translate(272,958)" d="m0 0 139 1 3 4v7l-3 6h-140l-4-5v-7l3-5z" fill="#FBFBFB"/>
<path transform="translate(275,310)" d="m0 0h15l12 3v3l-10 9-8 7-13 13-1 2h-2l-2 4-10 12-12 17-6 10-2-3-4-9-2-9v-14l4-13 7-12 10-10 10-6 10-3z" fill="#F9F9F9"/>
<path transform="translate(1019,1178)" d="m0 0h17l15 4 16 8-1 4-7 8-13 9-10 4-4 1h-20l-11-4-8-6-8-9-2-6 8-5 16-6z" fill="#B3C1BE"/>
<path transform="translate(1075,801)" d="m0 0 17 1 16 5 11 6v4l-7 8-13 9-9 4-11 2-16-1-12-5-10-9-5-8 1-4 12-6 17-5z" fill="#B3C1BE"/>
<path transform="translate(1043,990)" d="m0 0h20l16 4 13 7 1 4-13 13-16 8-8 2h-15l-13-4-11-8-6-8-1-6 14-7 13-4z" fill="#B3C1BE"/>
<path transform="translate(1195,953)" d="m0 0h80l5 3 3 5v7l-6 7-4 2h-80l-6-4-2-5 1-7 5-6z" fill="#2CA07C"/>
<path transform="translate(881,609)" d="m0 0h2l12 84v7l-8 10-12 9-3 2h-3l-1-19v-18l2-36 4-34 6-1z" fill="#1D3138"/>
<path transform="translate(677,583)" d="m0 0 4 1 2 2 4 34 1 5-5 12-11 19-12 17-11 13-9 10-3 1 3-10 7-19 9-27 7-18 9-14 4-13v-10z" fill="#FBB576"/>
<path transform="translate(1082,754)" d="m0 0h8l7 3 5 5 3 6v9l-5 10-8 7-7 3h-10l-9-6-4-7v-12l4-8 5-5 6-4z" fill="#B3C1BE"/>
<path transform="translate(1027,1131)" d="m0 0h12l6 3 6 7 1 3v12l-5 8-8 7-9 3-9-1-6-4-4-5-2-6v-8l5-10 8-7z" fill="#B3C1BE"/>
<path transform="translate(1053,943)" d="m0 0h14l6 4 4 5 2 6-1 10-5 8-7 6-6 3h-11l-6-3-6-7-1-3v-12l4-8 8-7z" fill="#B3C1BE"/>
<path transform="translate(610,773)" d="m0 0 2 1-13 11-17 12-10 7-13 9-12 5-19 5-7 1-10-10-6-7 13-3 25-5 20-6 19-7 20-9z" fill="#FCB678"/>
<path transform="translate(725,745)" d="m0 0 89 1 2 1v2l-25 9-23 8-6 1-31-14-8 1-20 5-2-1v-5l2-7z" fill="#044C99"/>
<path transform="translate(614,716)" d="m0 0 2 1-12 9-19 11-23 11-24 8-17 4-19 3-14 1h-26l-19-2-22-4-11-3 4-1 22 4 21 2h34l25-3 26-6 21-7 18-8 20-11z" fill="#A8E5D1"/>
<path transform="translate(669,576)" d="m0 0 5 2 5 5h-2v13l-4 13-9 14-8 21-1-4 5-19 4-21 4-23z" fill="#B3C2BE"/>
<path transform="translate(1104,727)" d="m0 0h12l7 3v2l4 2 5 4 6 8 7 10v5l-4-1-6-11-11-9-12-7-6-2v-2h-2z" fill="#04AB77"/>
<path transform="translate(567,1558)" d="m0 0h136v1l-133 1-2 2-1 5v25l-2 1v-31z" fill="#C6FDEB"/>
<path transform="translate(1068,726)" d="m0 0 7 2-3 3-13 5-10 6-6 5-5 3h-2l2-5 6-5 4-4 5-3h2v-2l10-3z" fill="#05AB77"/>
<path transform="translate(1059,1105)" d="m0 0 10 2 5 4v3l4 2 1 5-5-2-10-7-8-5z" fill="#09AA78"/>
<path transform="translate(790,330)" d="m0 0h7l11 4 5 6-1 2-4-1-6-4-11-3z" fill="#214E4A"/>
<path transform="translate(1091,920)" d="m0 0 8 3 5 2 7 8v2l-5-1-3-3-6-3-8-5v-2z" fill="#06AB77"/>
<path transform="translate(1080,512)" d="m0 0h2v2l-10 4-18 9v-2l3-2 2-7h8z" fill="#D0FDEE"/>
<path transform="translate(1542,645)" d="m0 0 1 4-2 12 1 6-4 1-1 5h-1v-11l3-13z" fill="#D4FDEF"/>
<path transform="translate(788,347)" d="m0 0 4 1 4 3 1 4-3 5-4 1-2-2z" fill="#1D4F54"/>
<path transform="translate(753,340)" d="m0 0 5 1 2 2v6l-3 4-4-1-1-1z" fill="#164760"/>
<path transform="translate(1006,1108)" d="m0 0 4 1v2l-11 6-6 4-4-1h2l1-4 11-7z" fill="#08AA77"/>
<path transform="translate(1035,919)" d="m0 0h2l-1 4-13 7-5 4-3-1 2-4h3v-2l8-5z" fill="#09AA78"/>
<path transform="translate(752,539)" d="m0 0 7 6 1 4-7 5h-2z" fill="#F0F7F5"/>
<path transform="translate(1745,1540)" d="m0 0h77v1h-77z" fill="#FBFBFB"/>
<path transform="translate(796,387)" d="m0 0h3l-2 4-6 3-4 1h-13v-2l14-2z" fill="#256C5C"/>
<path transform="translate(699,736)" d="m0 0h1l2 8 1 8h-4l-3-3h3z" fill="#D6E9E3"/>
<path transform="translate(1041,533)" d="m0 0v3l-11 9-5 3-2-1 1-2 5-2 8-7z" fill="#CBFCEC"/>
<path transform="translate(685,711)" d="m0 0 3 3 2 4-7-1-1-2z" fill="#E4E9E8"/>
<path transform="translate(120,1580)" d="m0 0h8v1h-8z" fill="#FBFBFB"/>
<path transform="translate(1739,1572)" d="m0 0h7v1h-7z" fill="#FBFBFB"/>
<path transform="translate(355,1580)" d="m0 0 3 1z" fill="#FBFBFB"/>
<path transform="translate(110,1580)" d="m0 0 3 1z" fill="#FBFBFB"/>
<path transform="translate(1804,1572)" d="m0 0 3 1z" fill="#FBFBFB"/>
<path transform="translate(1775,1572)" d="m0 0 3 1z" fill="#FBFBFB"/>
<path transform="translate(1747,1572)" d="m0 0 3 1z" fill="#FBFBFB"/>
<path transform="translate(480,1599)" d="m0 0 2 1z" fill="#FBFBFB"/>
<path transform="translate(381,1580)" d="m0 0 2 1z" fill="#FBFBFB"/>
<path transform="translate(309,1580)" d="m0 0 2 1z" fill="#FBFBFB"/>
<path transform="translate(117,1580)" d="m0 0 2 1z" fill="#FBFBFB"/>
<path transform="translate(1813,1572)" d="m0 0 2 1z" fill="#FBFBFB"/>
<path transform="translate(353,1580)" d="m0 0" fill="#FBFBFB"/>
<path transform="translate(129,1580)" d="m0 0" fill="#FBFBFB"/>
<path transform="translate(1808,1572)" d="m0 0" fill="#FBFBFB"/>
<path transform="translate(1771,1572)" d="m0 0" fill="#FBFBFB"/>
<path transform="translate(1728,1572)" d="m0 0" fill="#FBFBFB"/>
<path transform="translate(1421,1540)" d="m0 0" fill="#FBFBFB"/>
</svg>
