<?xml version="1.0" encoding="UTF-8"?>
<svg version="1.1" xmlns="http://www.w3.org/2000/svg" width="652" height="558">
<path d="M0 0 C6.4295743 2.24493559 11.24817688 6.34546658 15 12 C16.07570093 15.2271028 16.1571116 17.6365741 16.20532227 21.03198242 C16.22526749 22.27304245 16.24521271 23.51410248 16.26576233 24.79277039 C16.28274527 26.1470019 16.29962413 27.50123473 16.31640625 28.85546875 C16.33698228 30.24124259 16.35797892 31.62701025 16.37937927 33.01277161 C16.43453301 36.65740953 16.48397174 40.30210346 16.53222656 43.94683838 C16.58249056 47.6670835 16.63815104 51.38724743 16.69335938 55.10742188 C16.80085899 62.40487913 16.90232207 69.70240397 17 77 C17.94101562 76.41089844 18.88203125 75.82179688 19.8515625 75.21484375 C21.10884188 74.45484651 22.36668457 73.69578063 23.625 72.9375 C24.24246094 72.54755859 24.85992187 72.15761719 25.49609375 71.75585938 C28.81649133 69.78109661 30.43411612 68.96812838 34.3984375 69.19140625 C37 70 37 70 38 71 C38.08296655 73.25534117 38.0934357 75.51334665 38.07746887 77.77015686 C38.07394006 78.48659455 38.07041125 79.20303224 38.0667755 79.94118017 C38.05841193 81.5196989 38.04772771 83.09820654 38.03508186 84.67669678 C38.01452439 87.2454704 37.99970869 89.8142201 37.98648071 92.38304138 C37.97218431 95.15025574 37.95751387 97.91746297 37.94112074 100.6846658 C37.90079668 107.56505129 37.88002909 114.44529555 37.8712616 121.32579041 C37.86997798 122.32400238 37.86869437 123.32221435 37.86737186 124.35067517 C37.86248875 128.47284687 37.85831257 132.59501891 37.85458529 136.71719182 C37.84330696 148.41120492 37.8128022 160.10440195 37.72241211 171.7980957 C37.6507785 181.08142466 37.62200981 190.36379061 37.64257544 199.6473884 C37.651875 204.55709786 37.64022531 209.46465937 37.57660866 214.37401009 C37.51708776 219.00676069 37.51502431 223.63618353 37.55459976 228.26911354 C37.5592708 229.95726397 37.54392626 231.64562516 37.50561714 233.33334732 C37.24170409 245.70291129 40.34324113 252.55446622 48.42556286 261.94243526 C51 265 51 265 51 267 C56.7349894 262.89608887 61.91602558 258.44291685 67 253.5625 C71.660543 249.11586864 76.36053158 244.75395542 81.24438477 240.55224609 C82.99595879 239.04118948 82.99595879 239.04118948 84.50756836 237.45947266 C87.49586987 234.54004954 89.62407574 233.68398519 93.6875 233.625 C96.44836817 233.74897681 98.34044231 234.11348077 101 235 C100.67 232.36 100.34 229.72 100 227 C99.05125 226.9175 98.1025 226.835 97.125 226.75 C94 226 94 226 92.6875 224.4375 C91.7108612 220.97487154 91.35807653 217.58076529 91 214 C90.34 214 89.68 214 89 214 C89.16886719 213.32839844 89.33773438 212.65679687 89.51171875 211.96484375 C90.29378196 207.21615594 89.85255348 202.48559299 89.64453125 197.69140625 C90.12324508 192.72014723 92.14520485 189.9544133 95.52734375 186.390625 C102.31309463 180.90187359 108.59661211 180.30780975 117.03515625 180.5625 C123.62984417 181.2901897 127.40561859 183.87903622 131.578125 188.8984375 C136.52076497 196.08514964 137.26770463 204.42845537 138.3125 212.875 C139.34910489 220.73516925 140.96604751 228.16189815 143.23583984 235.75146484 C144.49445193 240.00414886 145.39636067 244.08253605 145.9375 248.5 C146.75561514 254.8667178 148.74306255 260.65356844 150.96850586 266.64648438 C152.62533125 271.24234275 153.5779347 275.04377211 153 280 C151.57421875 282.94921875 151.57421875 282.94921875 149.6875 285.6875 C148.76517578 287.05455078 148.76517578 287.05455078 147.82421875 288.44921875 C146 291 146 291 144.25 293.10546875 C142.47166788 295.80075336 143.20064261 297.88993714 143.66796875 300.9609375 C144.11614216 305.06304238 144.12624175 309.1265547 144.125 313.25 C144.12927002 314.03068848 144.13354004 314.81137695 144.13793945 315.61572266 C144.12908707 319.54365211 143.96644067 323.16491798 143 327 C143.69867187 327.24621094 144.39734375 327.49242187 145.1171875 327.74609375 C168.81727191 338.05466705 192.39606357 363.13678392 202 387 C208.94868771 407.11337836 209.37694499 426.89540143 200.16064453 446.3527832 C193.40728699 459.94705951 193.40728699 459.94705951 189 465 C188.34 465 187.68 465 187 465 C186.77183594 465.54269531 186.54367187 466.08539063 186.30859375 466.64453125 C181.11138124 475.99951377 171.38906255 483.70028888 163 490 C162.41041504 490.44811035 161.82083008 490.8962207 161.21337891 491.35791016 C149.49243146 500.20023839 137.0455945 507.30194909 124 514 C123.22495117 514.4031543 122.44990234 514.80630859 121.65136719 515.22167969 C68.91910264 542.41066708 7.51424248 552.71351721 -51 557 C-52.30606201 557.09788818 -53.61212402 557.19577637 -54.95776367 557.29663086 C-67.31804338 558.15941869 -79.67662708 558.19905224 -92.0625 558.1875 C-93.16094238 558.18722809 -94.25938477 558.18695618 -95.39111328 558.18667603 C-113.67030053 558.16594041 -131.79002496 557.67972439 -150 556 C-151.65733154 555.84724609 -151.65733154 555.84724609 -153.34814453 555.69140625 C-228.89019495 548.40591009 -318.79894579 528.20409364 -371.5234375 468.9609375 C-373 467 -373 467 -373 465 C-373.66 465 -374.32 465 -375 465 C-377.03403731 462.45884771 -378.63117885 459.59591258 -380.3125 456.8125 C-380.8087085 455.99330078 -381.30491699 455.17410156 -381.81616211 454.33007812 C-385.71079465 447.75961149 -388.78837092 441.33858739 -391 434 C-391.36351562 432.83597656 -391.36351562 432.83597656 -391.734375 431.6484375 C-396.63597556 412.37322447 -391.79883813 392.3781239 -381.99609375 375.5625 C-377.37606614 367.99127214 -372.20179332 361.36635168 -366 355 C-365.19175781 354.12988281 -364.38351562 353.25976562 -363.55078125 352.36328125 C-341.64979175 329.41471079 -311.17476602 314.41538282 -282 303 C-281.23413574 302.69803711 -280.46827148 302.39607422 -279.67919922 302.08496094 C-277.45653425 301.21319854 -275.22997144 300.35288324 -273 299.5 C-272.33492432 299.24428223 -271.66984863 298.98856445 -270.98461914 298.72509766 C-268.16444925 297.67285624 -266.03871321 297 -263 297 C-262.835 296.278125 -262.67 295.55625 -262.5 294.8125 C-260.31001631 290.70628058 -257.21679085 288.84199167 -253 287 C-248.47357697 286.48057441 -246.80644288 286.46237141 -243 289 C-241.13739179 288.84215185 -239.2717556 288.68100452 -237.42578125 288.38671875 C-233.9609623 287.83435631 -230.48249838 287.42665163 -227 287 C-227.02094727 286.38705078 -227.04189453 285.77410156 -227.06347656 285.14257812 C-227.55118232 268.63466418 -227.9382414 251.59145328 -217 238 C-211.87721068 232.61553578 -207.60273005 229.28593096 -200.0625 228.6875 C-194.99685438 228.84013716 -191.57047374 230.52190707 -187.875 234 C-181.33148972 244.46961644 -180.83530152 255.51919379 -180.9375 267.5 C-180.94201172 268.51320313 -180.94652344 269.52640625 -180.95117188 270.5703125 C-180.96285407 273.04693827 -180.97923418 275.52343657 -181 278 C-180.43152344 277.855625 -179.86304688 277.71125 -179.27734375 277.5625 C-178.50519531 277.376875 -177.73304688 277.19125 -176.9375 277 C-176.18339844 276.814375 -175.42929688 276.62875 -174.65234375 276.4375 C-171.41035149 275.90273839 -168.28095117 275.97309317 -165 276 C-165.00368717 275.06847327 -165.00737434 274.13694654 -165.01117325 273.17719173 C-165.09997861 250.5092078 -165.1657064 227.84124643 -165.20724869 205.17312527 C-165.2278723 194.21097569 -165.25598917 183.24894104 -165.30175781 172.28686523 C-165.3416316 162.73211514 -165.36743427 153.17744829 -165.37635398 143.6226173 C-165.38156778 138.56356284 -165.39381811 133.50474649 -165.42292023 128.44576836 C-165.45009778 123.68269582 -165.45844022 118.9199592 -165.45243073 114.15681648 C-165.45352991 112.41011351 -165.46146987 110.66339915 -165.4768219 108.91676331 C-165.49678697 106.52783398 -165.4919162 104.14016524 -165.48101807 101.75120544 C-165.49266943 101.06344274 -165.5043208 100.37568004 -165.51632524 99.66707605 C-165.4506215 94.32184443 -163.89907789 91.3324116 -161 87 C-159.06030273 85.24780273 -159.06030273 85.24780273 -156.99609375 83.99609375 C-156.2057373 83.50866699 -155.41538086 83.02124023 -154.60107422 82.51904297 C-153.74271973 82.01775879 -152.88436523 81.51647461 -152 81 C-151.0939502 80.46133301 -150.18790039 79.92266602 -149.25439453 79.36767578 C-146.20356915 77.57551446 -143.13571887 75.81596589 -140.0625 74.0625 C-138.3326544 73.07007862 -136.60281157 72.07765235 -134.87313843 71.08493042 C-133.09060128 70.06235909 -131.30731803 69.04109866 -129.52392578 68.02001953 C-124.00810212 64.86030089 -118.50479254 61.67888278 -113 58.5 C-110.83339031 57.24990125 -108.6667235 55.99990149 -106.5 54.75 C-105.4275 54.13125 -104.355 53.5125 -103.25 52.875 C-67.5 32.25 -67.5 32.25 -64.24609375 30.37280273 C-62.0923828 29.13023981 -59.93873633 27.88756511 -57.78515625 26.64477539 C-52.76315738 23.74685377 -47.74057193 20.84996651 -42.71557617 17.95724487 C-40.94954478 16.94052802 -39.18372569 15.92344342 -37.41796875 14.90625 C-35.21265845 13.63599127 -33.00695784 12.36640982 -30.80078125 11.09765625 C-29.79402344 10.51757812 -28.78726562 9.9375 -27.75 9.33984375 C-26.78312256 8.78449951 -25.81624512 8.22915527 -24.82006836 7.65698242 C-22.94352308 6.55438414 -21.08441564 5.42154407 -19.24438477 4.2590332 C-12.56593098 0.04673858 -7.93605215 -1.41370969 0 0 Z M77.125 266.875 C72.19064122 271.25196343 67.22534309 275.53524567 62 279.5625 C61.01 280.32691406 60.02 281.09132813 59 281.87890625 C55.76047317 284.16935295 52.47242005 286.08582845 49 288 C52.15350897 289.69959412 55.30222758 290.79826377 58.7265625 291.83984375 C60.39912109 292.3512793 60.39912109 292.3512793 62.10546875 292.87304688 C63.26691406 293.22431641 64.42835938 293.57558594 65.625 293.9375 C66.76324219 294.28490234 67.90148437 294.63230469 69.07421875 294.99023438 C75.71026407 297.01304727 82.35321899 299.01276934 89 301 C89.34192668 299.16824992 89.67306214 297.33448463 90 295.5 C90.2784375 293.96859375 90.2784375 293.96859375 90.5625 292.40625 C91.48638375 285.21315505 90.81725051 278.70996335 89.5625 271.625 C89.42779297 270.81933594 89.29308594 270.01367188 89.15429688 269.18359375 C88.48716515 264.96812844 88.48716515 264.96812844 87 261 C82.50495283 261 80.29672099 263.99463292 77.125 266.875 Z M129 264 C127.71766704 267.0336334 126.97578056 269.69162495 127 273 C128.8805881 276.72511013 131.29275541 279.83714596 134 283 C135.66846734 281.30504044 135.66846734 281.30504044 137 279 C136.75626419 275.13147517 135.20836781 272.09301501 133.4375 268.6875 C132.98246094 267.80449219 132.52742187 266.92148437 132.05859375 266.01171875 C131.70925781 265.34785156 131.35992188 264.68398438 131 264 C130.34 264 129.68 264 129 264 Z M38 274 C38 277.96 38 281.92 38 286 C42.95 286.99 42.95 286.99 48 288 C47.071875 286.80375 46.14375 285.6075 45.1875 284.375 C42.69705276 281.06617884 40.70570723 277.7904605 39 274 C38.67 274 38.34 274 38 274 Z " fill="#385A64" transform="translate(419,0)"/>
<path d="M0 0 C2.10375 0.12375 4.2075 0.2475 6.375 0.375 C8.15003906 0.47941406 8.15003906 0.47941406 9.9609375 0.5859375 C13 1 13 1 15 3 C16.83286924 3.67784108 18.6941926 4.27975964 20.56640625 4.83984375 C21.69240234 5.18080078 22.81839844 5.52175781 23.97851562 5.87304688 C25.16123047 6.22431641 26.34394531 6.57558594 27.5625 6.9375 C29.876593 7.63314759 32.19040071 8.32974497 34.50390625 9.02734375 C35.60879395 9.35976074 36.71368164 9.69217773 37.85205078 10.03466797 C41.92755941 11.28444004 45.96476687 12.62621199 50 14 C50.66 13.34 51.32 12.68 52 12 C51.23624641 21.14796236 50.20028541 30.2597296 49.125 39.375 C48.9939386 40.49452057 48.9939386 40.49452057 48.86022949 41.63665771 C47.6878842 51.63423216 46.44340641 61.61302715 44.86376953 71.55615234 C43.28012115 81.85541957 44.30198443 87.78172324 48.81317139 97.28308105 C50.01508305 99.81510829 51.18315427 102.36231056 52.35400391 104.90881348 C52.9681661 106.24351076 53.58407378 107.57740614 54.20166016 108.91052246 C57.5462356 116.13837644 60.72097774 123.4374202 63.875 130.75 C64.14729431 131.38017029 64.41958862 132.01034058 64.70013428 132.65960693 C67.94529854 140.17235784 71.17174526 147.69292223 74.3125 155.25 C74.59657715 155.92901367 74.8806543 156.60802734 75.17333984 157.30761719 C77 161.75750831 77 161.75750831 77 164 C75.80761719 163.90460938 74.61523438 163.80921875 73.38671875 163.7109375 C71.82035364 163.59838432 70.25394494 163.48643666 68.6875 163.375 C67.90181641 163.31054688 67.11613281 163.24609375 66.30664062 163.1796875 C65.54931641 163.128125 64.79199219 163.0765625 64.01171875 163.0234375 C63.31522217 162.97106934 62.61872559 162.91870117 61.90112305 162.86474609 C59.66489452 162.86644144 59.66489452 162.86644144 57 165 C57.95850615 167.37888314 58.60128499 168.73973987 60.77734375 170.16015625 C69.2222787 173.6877873 77.83809822 176.33367987 87 177 C87.66 176.67 88.32 176.34 89 176 C89.33 174.845 89.66 173.69 90 172.5 C90.33 171.345 90.66 170.19 91 169 C91.66 168.67 92.32 168.34 93 168 C92.94199219 167.01386719 92.88398437 166.02773438 92.82421875 165.01171875 C92.35742515 152.9917835 94.29502978 141.88191613 96.62109375 130.12109375 C98.03061393 122.9809038 99.22049272 115.82008109 100.3125 108.625 C100.56918457 107.01443726 100.56918457 107.01443726 100.83105469 105.37133789 C103.30367397 91.76517759 103.30367397 91.76517759 99.875 79 C96.64500519 73.53297697 98.71551947 67.87649842 100 62 C100.52336799 59.41717898 101.04417738 56.83383826 101.5625 54.25 C101.81773437 53.00605469 102.07296875 51.76210938 102.3359375 50.48046875 C103.12960093 46.32073863 103.63014227 42.21637817 104 38 C104.33 38.99 104.66 39.98 105 41 C106.65006874 41.70674987 108.32096421 42.36512913 110 43 C137.93503059 60.52423007 160.37252531 83.79317969 168.58984375 116.3359375 C172.08871698 139.06195219 164.69893871 158.92002472 152.2265625 177.59375 C151.82179688 178.0578125 151.41703125 178.521875 151 179 C150.34 179 149.68 179 149 179 C148.65775391 179.81404297 148.65775391 179.81404297 148.30859375 180.64453125 C143.11138124 189.99951377 133.38906255 197.70028888 125 204 C124.11562256 204.67216553 124.11562256 204.67216553 123.21337891 205.35791016 C111.49243146 214.20023839 99.0455945 221.30194909 86 228 C85.22495117 228.4031543 84.44990234 228.80630859 83.65136719 229.22167969 C30.91910264 256.41066708 -30.48575752 266.71351721 -89 271 C-90.95909302 271.14683228 -90.95909302 271.14683228 -92.95776367 271.29663086 C-105.31804338 272.15941869 -117.67662708 272.19905224 -130.0625 272.1875 C-131.16094238 272.18722809 -132.25938477 272.18695618 -133.39111328 272.18667603 C-151.67030053 272.16594041 -169.79002496 271.67972439 -188 270 C-189.1048877 269.89816406 -190.20977539 269.79632812 -191.34814453 269.69140625 C-266.89019495 262.40591009 -356.79894579 242.20409364 -409.5234375 182.9609375 C-411 181 -411 181 -411 179 C-411.66 179 -412.32 179 -413 179 C-415.03403731 176.45884771 -416.63117885 173.59591258 -418.3125 170.8125 C-418.8087085 169.99330078 -419.30491699 169.17410156 -419.81616211 168.33007812 C-423.71079465 161.75961149 -426.78837092 155.33858739 -429 148 C-429.24234375 147.22398437 -429.4846875 146.44796875 -429.734375 145.6484375 C-434.63597556 126.37322447 -429.79883813 106.3781239 -419.99609375 89.5625 C-415.37606614 81.99127214 -410.20179332 75.36635168 -404 69 C-403.19175781 68.12988281 -402.38351562 67.25976562 -401.55078125 66.36328125 C-379.65817937 43.4234996 -349.17363387 28.39257709 -320 17 C-318.84322754 16.54705566 -318.84322754 16.54705566 -317.66308594 16.08496094 C-304.59139024 11 -304.59139024 11 -302 11 C-302.15855469 11.80824219 -302.31710937 12.61648438 -302.48046875 13.44921875 C-305.76580696 35.9031468 -300.02786278 57.91160875 -286.75 76.25 C-280.87077329 83.65497759 -274.37028518 90.6370722 -267.6796875 97.31640625 C-264.73529668 100.36212226 -262.56444726 102.75069073 -262.0625 107.0625 C-262.37996718 110.82042542 -264.07604084 112.35016116 -266.875 114.75 C-267.95394531 115.54664063 -267.95394531 115.54664063 -269.0546875 116.359375 C-271.17252467 118.14550273 -272.0364281 119.42059215 -273 122 C-273.5567502 128.90370251 -272.18918562 132.58487044 -268.4375 138.4375 C-258.13670583 149.26654002 -242.82613939 154.32537613 -228.13696289 155.24072266 C-224.15088957 155.29319357 -220.17257839 155.26429402 -216.1875 155.1875 C-214.80144711 155.17240068 -213.41537799 155.1587217 -212.02929688 155.14648438 C-208.68576906 155.11153461 -205.3431073 155.06247302 -202 155 C-201.76490723 155.60908203 -201.52981445 156.21816406 -201.28759766 156.84570312 C-199.34610742 161.58123041 -197.96996873 164.8567404 -193.375 167.5 C-192.59898437 167.9640625 -191.82296875 168.428125 -191.0234375 168.90625 C-186.28432301 171.46793351 -182.36204529 171.6257324 -177 171 C-173.71001897 169.84481395 -170.85147548 168.17679435 -167.875 166.375 C-166.59810303 165.63781738 -166.59810303 165.63781738 -165.29541016 164.88574219 C-162.51839274 163.27664805 -159.75975734 161.63848664 -157 160 C-155.09506321 158.89097043 -153.18879454 157.78422567 -151.28125 156.6796875 C-147.26966006 154.35319273 -143.26512546 152.01518431 -139.265625 149.66796875 C-132.90228965 145.93674029 -126.51650445 142.24521942 -120.125 138.5625 C-119.04524902 137.94020508 -117.96549805 137.31791016 -116.85302734 136.67675781 C-114.66285466 135.41471274 -112.47258757 134.15283148 -110.28222656 132.89111328 C-104.85340058 129.76319852 -99.42680719 126.63141552 -94 123.5 C-91.83334417 122.24998121 -89.6666775 120.99998122 -87.5 119.75 C-86.4275 119.13125 -85.355 118.5125 -84.25 117.875 C-74.5 112.25 -74.5 112.25 -71.24462891 110.37255859 C-69.09510539 109.13201342 -66.94633189 107.89016768 -64.79833984 106.64697266 C-59.73274267 103.71725732 -54.66062163 100.80123371 -49.56085205 97.93145752 C-47.15740765 96.57790558 -44.75824558 95.21686229 -42.359375 93.85522461 C-40.668185 92.89940706 -38.97087867 91.95443714 -37.2734375 91.00976562 C-36.24734375 90.42646484 -35.22125 89.84316406 -34.1640625 89.2421875 C-33.26123535 88.7354248 -32.3584082 88.22866211 -31.42822266 87.70654297 C-27.85602272 85.19601838 -25.46930085 82.51637303 -24.171875 78.32421875 C-24.03265625 77.45410156 -23.8934375 76.58398438 -23.75 75.6875 C-23.60046875 74.80449219 -23.4509375 73.92148437 -23.296875 73.01171875 C-23.14992188 72.01591797 -23.14992188 72.01591797 -23 71 C-19.75267068 72.62366466 -19.29844864 75.75387839 -18 79 C-16.32700041 78.34938905 -14.66140763 77.67966676 -13 77 C-12.30519531 76.75507813 -11.61039062 76.51015625 -10.89453125 76.2578125 C-8.76887862 75.12812339 -8.76887862 75.12812339 -8.21484375 72.609375 C-7.51144616 67.14386201 -7.51144616 67.14386201 -9.09765625 62.046875 C-10.35629639 60.65851429 -11.67491124 59.32508876 -13 58 C-12.67 57.01 -12.34 56.02 -12 55 C-11.360625 55.99 -10.72125 56.98 -10.0625 58 C-9.381875 58.99 -8.70125 59.98 -8 61 C-7.67 61 -7.34 61 -7 61 C-6.87882812 60.28972656 -6.75765625 59.57945312 -6.6328125 58.84765625 C-6.46523438 57.92855469 -6.29765625 57.00945312 -6.125 56.0625 C-5.96257812 55.14597656 -5.80015625 54.22945313 -5.6328125 53.28515625 C-5.42398437 52.53105469 -5.21515625 51.77695312 -5 51 C-4.34 50.67 -3.68 50.34 -3 50 C-3.33 52.31 -3.66 54.62 -4 57 C2.31244041 54.9710013 6.88672332 52.2021343 12 48 C10.56628754 51.51564598 8.89792573 53.10494369 5.75 55.1875 C5.00234375 55.69667969 4.2546875 56.20585937 3.484375 56.73046875 C1 58 1 58 -5 59 C-5.33 63.62 -5.66 68.24 -6 73 C5.54542738 67.12053627 15.55841508 60.30271373 21 48 C21.41990073 44.74723247 21.41990073 44.74723247 21 42 C19.50256881 40.50256881 18.01175761 40.66797307 15.9375 40.4375 C14.638125 40.293125 13.33875 40.14875 12 40 C11.87166371 32.37315746 14.27019313 26.43215872 17.56079102 19.7109375 C19.50345533 15.63953954 20.49749895 12.62463815 20 8 C18.81094598 6.60573129 18.81094598 6.60573129 15.4375 6.5625 C8.72710867 6.6107762 4.48012138 11.51987862 0 16 C0 10.72 0 5.44 0 0 Z " fill="#F4F4F4" transform="translate(457,286)"/>
<path d="M0 0 C0 55.44 0 110.88 0 168 C-3.9337232 164.0662768 -3.9337232 164.0662768 -4.1328125 160.86328125 C-4.11730398 155.79975019 -3.86788147 150.99031846 -3 146 C-6.0210714 148.0140476 -7.60667426 149.63279613 -9 153 C-15.44541485 146.73362445 -15.44541485 146.73362445 -18 143 C-17.67 142.01 -17.34 141.02 -17 140 C-16.77202438 137.26710707 -16.58331813 134.54957796 -16.4375 131.8125 C-16.39431641 131.06291016 -16.35113281 130.31332031 -16.30664062 129.54101562 C-16.20077315 127.69421625 -16.0999024 125.84713166 -16 124 C-33.80080691 133.89108026 -33.80080691 133.89108026 -51.4140625 144.11010742 C-57.72671631 147.852245 -64.07910512 151.52369736 -70.4375 155.1875 C-71.53674805 155.82115479 -72.63599609 156.45480957 -73.76855469 157.10766602 C-79.48466031 160.4015036 -85.20281384 163.69176611 -90.921875 166.98046875 C-105.04013836 175.09573273 -105.04013836 175.09573273 -119.0625 183.375 C-119.66989014 183.73835449 -120.27728027 184.10170898 -120.90307617 184.47607422 C-123.60380449 186.03421462 -123.60380449 186.03421462 -126 188 C-126.23653523 190.52596259 -126.42173692 193.03107207 -126.5625 195.5625 C-126.60568359 196.27341797 -126.64886719 196.98433594 -126.69335938 197.71679688 C-126.79971777 199.47761912 -126.90038846 201.2387832 -127 203 C-119.51574428 199.45254931 -112.36185046 195.52985367 -105.25048828 191.29833984 C-98.68012357 187.3891365 -92.06443631 183.56243001 -85.4375 179.75 C-77.87370742 175.39588827 -70.31955515 171.02668684 -62.78833008 166.61645508 C-58.86593557 164.32107071 -54.93760304 162.03597631 -51.00830078 159.75244141 C-48.93141618 158.54258281 -46.85702039 157.32844524 -44.78466797 156.11083984 C-41.61315863 154.2495808 -38.43269779 152.40454515 -35.25 150.5625 C-33.79364136 149.70084229 -33.79364136 149.70084229 -32.30786133 148.82177734 C-31.40704834 148.30437988 -30.50623535 147.78698242 -29.578125 147.25390625 C-28.78825195 146.79314697 -27.99837891 146.3323877 -27.18457031 145.85766602 C-24.64505169 144.86064669 -23.51570206 145.05929944 -21 146 C-20.3125 147.625 -20.3125 147.625 -20 150 C-20.495 150.969375 -20.99 151.93875 -21.5 152.9375 C-23.18786006 155.81519458 -23.18786006 155.81519458 -23 158.5625 C-21.22527017 162.88840397 -17.81678743 165.36826597 -14.1875 168.17529297 C-5.21573292 175.71891672 -0.07544247 186.05194378 0.96484375 197.65527344 C1.42937824 205.63524485 1.25155559 213.6227046 1.04675293 221.60827637 C0.98384343 224.65831952 0.98172936 227.70718272 0.98059082 230.75778008 C0.97534605 233.7126914 0.94361057 236.66681805 0.90270996 239.62143326 C0.88438461 241.02394544 0.87167759 242.42654342 0.86486816 243.82915878 C0.84927205 245.77823681 0.79651997 247.72690996 0.7421875 249.67529297 C0.7201123 250.77936493 0.69803711 251.88343689 0.67529297 253.02096558 C-0.34049373 257.50207774 -3.16758109 259.65563639 -6.77001953 262.29858398 C-7.56835205 262.76760132 -7.56835205 262.76760132 -8.3828125 263.24609375 C-8.98681885 263.60517822 -9.5908252 263.9642627 -10.21313477 264.33422852 C-10.84405029 264.69830811 -11.47496582 265.0623877 -12.125 265.4375 C-12.78878662 265.82800537 -13.45257324 266.21851074 -14.13647461 266.62084961 C-18.78155187 269.33818338 -23.48239855 271.94456001 -28.22265625 274.4921875 C-43.28798408 282.67111372 -58.02565189 291.50589014 -72.82397461 300.15454102 C-82.32159433 305.70476242 -91.8400953 311.21436845 -101.39770508 316.66064453 C-107.29812819 320.0237786 -113.18561655 323.40839717 -119.0625 326.8125 C-119.84391357 327.26496094 -120.62532715 327.71742188 -121.43041992 328.18359375 C-124.89803038 330.19367381 -128.36197847 332.20952659 -131.81640625 334.2421875 C-132.90824219 334.88414062 -134.00007813 335.52609375 -135.125 336.1875 C-136.05570312 336.73792969 -136.98640625 337.28835938 -137.9453125 337.85546875 C-140 339 -140 339 -141 339 C-141.11402861 306.34485983 -141.20253052 273.68977695 -141.25532665 241.03448318 C-141.26158029 237.18045916 -141.26805189 233.32643554 -141.2746582 229.47241211 C-141.27596976 228.70513567 -141.27728131 227.93785922 -141.2786326 227.14733198 C-141.30039749 214.71875136 -141.33982493 202.29028621 -141.38576398 189.86177412 C-141.43249858 177.11182727 -141.46028903 164.36194095 -141.47044247 151.61191195 C-141.4773079 143.74248371 -141.49900215 135.87338183 -141.53958233 128.00405403 C-141.569102 121.97287216 -141.57228175 115.94197187 -141.56553841 109.91070938 C-141.56691717 107.43428854 -141.57690532 104.95785566 -141.59602737 102.48150826 C-141.6208163 99.10654162 -141.6149556 95.73298405 -141.60127258 92.35798645 C-141.61583679 91.37257695 -141.630401 90.38716744 -141.64540654 89.37189704 C-141.59472729 84.76384739 -141.54227283 82.69558815 -138.63473797 78.96601391 C-135.90721614 76.93076565 -133.20270568 75.16333896 -130.23046875 73.50390625 C-129.10688965 72.87025146 -127.98331055 72.23659668 -126.82568359 71.58374023 C-125.9370462 71.09005447 -125.9370462 71.09005447 -125.03045654 70.58639526 C-122.50725329 69.1845739 -119.99430604 67.7647953 -117.48046875 66.3462677 C-116.19096279 65.61891186 -114.90092052 64.89250602 -113.61035156 64.16703796 C-107.66108527 60.82090657 -101.76283423 57.39050812 -95.875 53.9375 C-84.37209808 47.20651924 -72.8307551 40.54343615 -61.28222656 33.89111328 C-54.78663684 30.14856359 -48.29393958 26.40099757 -41.80102539 22.65380859 C-36.71374968 19.71817241 -31.62573896 16.78383388 -26.5350647 13.85409546 C-24.12456252 12.46671905 -21.71448624 11.07860376 -19.30444336 9.69042969 C-17.59856032 8.70826185 -15.89206014 7.72716615 -14.18554688 6.74609375 C-12.64157227 5.85664062 -12.64157227 5.85664062 -11.06640625 4.94921875 C-10.15834229 4.42674561 -9.25027832 3.90427246 -8.31469727 3.3659668 C-2.61090259 0 -2.61090259 0 0 0 Z " fill="#FAFDFC" transform="translate(453,74)"/>
<path d="M0 0 C7.21015546 4.47443037 10.75125242 10.56128267 12.67553711 18.68896484 C13.48435435 22.70038477 13.93933017 26.75351568 14.44140625 30.8125 C15.47801114 38.67266925 17.09495376 46.09939815 19.36474609 53.68896484 C20.62335818 57.94164886 21.52526692 62.02003605 22.06640625 66.4375 C22.88452139 72.8042178 24.8719688 78.59106844 27.09741211 84.58398438 C28.7542375 89.17984275 29.70684095 92.98127211 29.12890625 97.9375 C27.703125 100.88671875 27.703125 100.88671875 25.81640625 103.625 C25.20152344 104.53636719 24.58664062 105.44773437 23.953125 106.38671875 C22.12890625 108.9375 22.12890625 108.9375 20.37890625 111.04296875 C18.60237891 113.73551801 19.327712 115.81911449 19.796875 118.88671875 C20.25043306 123.05411693 20.25514679 127.1861087 20.25390625 131.375 C20.26031128 132.58373779 20.26031128 132.58373779 20.2668457 133.81689453 C20.25378278 139.68774695 20.25378278 139.68774695 19.12890625 141.9375 C18.63820835 144.83143518 18.18324224 147.72191116 17.75390625 150.625 C16.62101023 158.13079287 15.24059357 165.52697475 13.58203125 172.93359375 C12.94048629 177.18659441 13.69590837 179.12346398 15.69140625 182.875 C20.26246906 193.54081322 16.16080622 207.71733259 14.31640625 218.75 C14.05184549 220.38592421 13.78816966 222.02199177 13.52539062 223.65820312 C12.39744505 230.61730769 11.2200392 237.55507387 9.8372345 244.46839905 C8.53168999 251.0390385 7.76753277 257.12709064 8.12890625 263.8125 C8.26764012 266.57330405 8.27446619 269.16579622 8.12890625 271.9375 C7.13890625 272.5975 6.14890625 273.2575 5.12890625 273.9375 C3.91009415 277.49422179 3.91009415 277.49422179 3.12890625 280.9375 C-2.09073222 282.15911751 -5.2809169 281.77812204 -10.265625 279.890625 C-14.41639699 278.37220166 -18.69421906 277.27305323 -22.953125 276.09765625 C-26.08851393 274.85105583 -27.68682467 273.47082903 -29.87109375 270.9375 C-28.12109375 267.0625 -28.12109375 267.0625 -25.87109375 265.9375 C-23.35270769 266.00103726 -20.88017919 266.12490483 -18.37109375 266.3125 C-17.33662109 266.37824219 -17.33662109 266.37824219 -16.28125 266.4453125 C-11.13289222 266.80660077 -11.13289222 266.80660077 -8.87109375 267.9375 C-16.03800221 250.72395631 -23.49496497 233.65354862 -31.10520935 216.63238525 C-31.74740315 215.19329676 -32.38761595 213.75332248 -33.02577209 212.31243896 C-34.61638324 208.72328603 -36.23434188 205.15193616 -37.90991211 201.6015625 C-43.86213753 188.83071986 -43.86213753 188.83071986 -42.93359375 181.1875 C-42.80082031 179.89328125 -42.66804687 178.5990625 -42.53125 177.265625 C-42.06051727 173.98367953 -41.49215483 170.72042288 -40.9296875 167.453125 C-39.63705077 159.81378001 -38.75547403 152.13203466 -37.87109375 144.4375 C-37.69564802 142.92529181 -37.52019221 141.41308479 -37.34472656 139.90087891 C-36.3984088 131.70904709 -35.46766983 123.51530917 -34.62109375 115.3125 C-34.54117188 114.55775391 -34.46125 113.80300781 -34.37890625 113.02539062 C-33.5331929 104.49778105 -34.01362841 96.85133924 -35.37109375 88.4375 C-35.51417969 87.5196875 -35.65726563 86.601875 -35.8046875 85.65625 C-36.15476425 83.41575881 -36.51032865 81.17629053 -36.87109375 78.9375 C-40.93916273 81.2033546 -44.37839803 83.95096526 -47.87109375 87 C-52.48270536 90.96625293 -57.16724114 94.80085197 -61.99609375 98.5 C-62.54007813 98.91709229 -63.0840625 99.33418457 -63.64453125 99.76391602 C-70.27990391 104.81480022 -70.27990391 104.81480022 -74.18359375 105.625 C-78.27171089 104.86280867 -78.5681024 104.65131956 -80.80859375 101.4375 C-83.69246433 96.56763938 -86.13194861 91.46151597 -88.63085938 86.38696289 C-96.27583732 69.80132755 -96.27583732 69.80132755 -108.9609375 57.26171875 C-111.16548625 55.73341194 -112.45368619 54.20714628 -113.87109375 51.9375 C-113.62221037 48.86793828 -112.64678976 46.20228136 -111.74609375 43.25 C-110.52054738 40.08791626 -110.52054738 40.08791626 -111.87109375 37.9375 C-115.56710957 38.51828497 -118.30816883 39.52809581 -121.546875 41.38671875 C-122.44446533 41.8976709 -123.34205566 42.40862305 -124.2668457 42.93505859 C-125.22937256 43.49273926 -126.19189941 44.05041992 -127.18359375 44.625 C-128.19832764 45.20588379 -129.21306152 45.78676758 -130.25854492 46.38525391 C-139.436161 51.65118018 -148.57180236 56.99025229 -157.703125 62.3359375 C-165.15126755 66.69228601 -172.62808461 70.99861758 -180.10888672 75.29858398 C-185.67213333 78.50007496 -191.21904612 81.72582299 -196.7421875 84.99609375 C-197.84498047 85.64707031 -198.94777344 86.29804688 -200.08398438 86.96875 C-202.19140405 88.21456563 -204.29571919 89.46565191 -206.39648438 90.72265625 C-207.33556641 91.27695312 -208.27464844 91.83125 -209.2421875 92.40234375 C-210.0664624 92.893396 -210.8907373 93.38444824 -211.73999023 93.89038086 C-213.87109375 94.9375 -213.87109375 94.9375 -216.87109375 94.9375 C-217.00646004 92.51895554 -217.10529654 90.10800217 -217.18359375 87.6875 C-217.22548828 87.00558594 -217.26738281 86.32367188 -217.31054688 85.62109375 C-217.359375 83.609375 -217.359375 83.609375 -216.87109375 79.9375 C-213.61955496 76.91779673 -210.02386047 74.74829314 -206.171875 72.57421875 C-205.0586084 71.94249756 -203.9453418 71.31077637 -202.79833984 70.65991211 C-201.91598663 70.16320511 -201.91598663 70.16320511 -201.01580811 69.65646362 C-198.5042306 68.24254564 -195.99816859 66.8189735 -193.49163818 65.39613342 C-192.19492839 64.66022457 -190.89792874 63.92482624 -189.60064697 63.18992615 C-183.29673152 59.61792171 -177.01896287 56.00122472 -170.74609375 52.375 C-168.6002635 51.13541133 -166.45443016 49.895828 -164.30859375 48.65625 C-162.71917969 47.73779297 -162.71917969 47.73779297 -161.09765625 46.80078125 C-157.83585368 44.9171495 -154.57247531 43.03627679 -151.30859375 41.15625 C-150.22271973 40.53057129 -149.1368457 39.90489258 -148.01806641 39.26025391 C-145.85648375 38.01478746 -143.69470354 36.76966381 -141.53271484 35.52490234 C-135.9986393 32.33447191 -130.47684142 29.12453193 -124.97265625 25.8828125 C-123.86422363 25.23127197 -122.75579102 24.57973145 -121.61376953 23.90844727 C-119.49271881 22.6601222 -117.37380899 21.40815051 -115.25732422 20.15209961 C-114.31518066 19.5978833 -113.37303711 19.04366699 -112.40234375 18.47265625 C-111.57283203 17.981604 -110.74332031 17.49055176 -109.88867188 16.98461914 C-107.87109375 15.9375 -107.87109375 15.9375 -105.87109375 15.9375 C-105.87109375 22.60416667 -105.87109375 29.27083333 -105.87109375 35.9375 C-104.58469129 38.1351539 -104.58469129 38.1351539 -102.87109375 40.1875 C-102.31421875 40.89390625 -101.75734375 41.6003125 -101.18359375 42.328125 C-100.75046875 42.85921875 -100.31734375 43.3903125 -99.87109375 43.9375 C-99.27296875 43.133125 -98.67484375 42.32875 -98.05859375 41.5 C-95.87109375 38.9375 -95.87109375 38.9375 -92.87109375 37.9375 C-92.92910156 39.071875 -92.98710937 40.20625 -93.046875 41.375 C-93.47902448 52.99351905 -93.47902448 52.99351905 -87.87109375 62.9375 C-87.87109375 63.5975 -87.87109375 64.2575 -87.87109375 64.9375 C-87.21109375 64.9375 -86.55109375 64.9375 -85.87109375 64.9375 C-84.55834961 66.45043945 -84.55834961 66.45043945 -83.0859375 68.55078125 C-82.29026367 69.6809668 -82.29026367 69.6809668 -81.47851562 70.83398438 C-80.92744141 71.63126953 -80.37636719 72.42855469 -79.80859375 73.25 C-79.25365234 74.03568359 -78.69871094 74.82136719 -78.12695312 75.63085938 C-74.00860709 81.52495997 -74.00860709 81.52495997 -72.87109375 84.9375 C-67.13610435 80.83358887 -61.95506817 76.38041685 -56.87109375 71.5 C-52.21055075 67.05336864 -47.51056217 62.69145542 -42.62670898 58.48974609 C-40.87513496 56.97868948 -40.87513496 56.97868948 -39.36352539 55.39697266 C-36.37522388 52.47754954 -34.24701801 51.62148519 -30.18359375 51.5625 C-27.42272558 51.68647681 -25.53065144 52.05098077 -22.87109375 52.9375 C-23.20109375 50.2975 -23.53109375 47.6575 -23.87109375 44.9375 C-24.81984375 44.855 -25.76859375 44.7725 -26.74609375 44.6875 C-29.87109375 43.9375 -29.87109375 43.9375 -31.18359375 42.375 C-32.16023255 38.91237154 -32.51301722 35.51826529 -32.87109375 31.9375 C-33.53109375 31.9375 -34.19109375 31.9375 -34.87109375 31.9375 C-34.70222656 31.26589844 -34.53335938 30.59429687 -34.359375 29.90234375 C-33.57731179 25.15365594 -34.01854027 20.42309299 -34.2265625 15.62890625 C-33.74784867 10.65764723 -31.7258889 7.8919133 -28.34375 4.328125 C-20.52007073 -2.00016959 -9.53641514 -3.52912234 0 0 Z M5.12890625 81.9375 C3.84657329 84.9711334 3.10468681 87.62912495 3.12890625 90.9375 C5.00949435 94.66261013 7.42166166 97.77464596 10.12890625 100.9375 C11.79737359 99.24254044 11.79737359 99.24254044 13.12890625 96.9375 C12.88517044 93.06897517 11.33727406 90.03051501 9.56640625 86.625 C9.11136719 85.74199219 8.65632812 84.85898437 8.1875 83.94921875 C7.83816406 83.28535156 7.48882813 82.62148438 7.12890625 81.9375 C6.46890625 81.9375 5.80890625 81.9375 5.12890625 81.9375 Z " fill="#02B399" transform="translate(542.87109375,182.0625)"/>
<path d="M0 0 C6.49149879 4.27848784 8.74154831 10.54247063 10.75 17.8125 C11.84186609 24.32870084 11.86876213 30.71684711 11.8125 37.3125 C11.80798828 38.32570313 11.80347656 39.33890625 11.79882812 40.3828125 C11.78714593 42.85943827 11.77076582 45.33593657 11.75 47.8125 C12.306875 47.67972656 12.86375 47.54695313 13.4375 47.41015625 C14.200625 47.23355469 14.96375 47.05695313 15.75 46.875 C16.4925 46.70097656 17.235 46.52695312 18 46.34765625 C21.56934007 45.65305456 25.13854237 45.23715233 28.75 44.8125 C28.93600243 53.35380914 29.09934256 61.8954975 29.25 70.4375 C29.26187725 71.1103302 29.2737545 71.7831604 29.28599167 72.47637939 C29.8157309 102.92081469 29.83503345 133.36417685 29.8125 163.8125 C29.81164398 164.97741219 29.81078796 166.14232437 29.80990601 167.34253693 C29.7984712 181.83253987 29.77833085 196.32252059 29.75 210.8125 C14.10390773 213.51579527 -2.19732685 212.9190215 -17.25 207.8125 C-18.17554688 207.53535156 -19.10109375 207.25820313 -20.0546875 206.97265625 C-29.08540775 203.92021654 -37.78710829 197.332566 -42.25 188.8125 C-43.49333968 185.08248095 -43.77293341 181.68662635 -43.25 177.8125 C-41.34550443 174.07675869 -39.35031632 171.8271806 -36 169.4375 C-32.91211414 166.98361203 -32.91211414 166.98361203 -32.4375 163 C-32.93996172 156.77181176 -37.86085744 153.11129683 -42.109375 149.0234375 C-55.06216078 136.44531907 -65.95006136 121.5855797 -70.25 103.8125 C-70.52585938 102.95140625 -70.80171875 102.0903125 -71.0859375 101.203125 C-74.13298873 91.08356036 -75.69975733 77.47791717 -71.5625 67.4375 C-68.96769949 62.82554008 -65.40982483 58.48185509 -60.25 56.8125 C-53.91666667 56.36805556 -53.91666667 56.36805556 -50.25 58.8125 C-48.38739179 58.65465185 -46.5217556 58.49350452 -44.67578125 58.19921875 C-41.2109623 57.64685631 -37.73249838 57.23915163 -34.25 56.8125 C-34.27094727 56.19955078 -34.29189453 55.58660156 -34.31347656 54.95507812 C-34.80118232 38.44716418 -35.1882414 21.40395328 -24.25 7.8125 C-17.31225645 0.5203727 -10.08744208 -3.68579614 0 0 Z " fill="#03B075" transform="translate(226.25,230.1875)"/>
<path d="M0 0 C0 6.6 0 13.2 0 20 C-2.206875 21.2375 -4.41375 22.475 -6.6875 23.75 C-25.50287787 34.32402922 -44.22400631 45.07021993 -62.828125 56.01171875 C-65.30201434 57.46626322 -67.77599261 58.92065634 -70.25 60.375 C-70.86714874 60.73793152 -71.48429749 61.10086304 -72.12014771 61.47479248 C-81.61066282 67.05281135 -91.15203255 72.53122278 -100.76855469 77.89013672 C-104.4320179 79.93920392 -108.04482164 81.97402604 -111.50390625 84.35546875 C-114 86 -114 86 -116 86 C-118.50645407 90.81346813 -118.24822872 95.33104271 -118.17753601 100.61407471 C-118.17034938 102.07491128 -118.17034938 102.07491128 -118.16301757 103.5652597 C-118.1448855 106.83172307 -118.11264298 110.09790146 -118.08081055 113.36425781 C-118.06555386 115.70503582 -118.05138992 118.04582116 -118.03823853 120.38661194 C-118.00905615 125.42957522 -117.97503298 130.4724757 -117.93817711 135.51538849 C-117.88287227 143.49099182 -117.8562288 151.46656736 -117.83760071 159.44232178 C-117.83430055 160.80187679 -117.8309993 162.16143179 -117.82769698 163.5209868 C-117.82111881 166.27334051 -117.81472335 169.02569459 -117.8084408 171.77804899 C-117.79223955 178.85024798 -117.77495344 185.92244179 -117.75415039 192.99462891 C-117.75103782 194.05898185 -117.75103782 194.05898185 -117.74786238 195.14483687 C-117.71278488 206.63953674 -117.630581 218.13347896 -117.53278448 229.62779489 C-117.43357033 241.43786564 -117.3916517 253.24719254 -117.40098029 265.05767894 C-117.40445778 271.68578922 -117.37901703 278.31182183 -117.28998375 284.93943024 C-117.20670932 291.17526125 -117.19343673 297.40733244 -117.2335701 303.64355278 C-117.2358667 305.92973324 -117.21252828 308.21610738 -117.16145897 310.50171852 C-116.80580168 327.33878155 -116.80580168 327.33878155 -120.45964456 331.77031994 C-123.99387427 334.72692964 -127.86824786 336.54949192 -132.14266455 338.19487333 C-134.32022978 339.06946702 -134.32022978 339.06946702 -137.23530102 341.20749283 C-140 343 -140 343 -144 343 C-145.16068446 340.67863108 -145.12925826 339.34175038 -145.13701439 336.75699997 C-145.14208893 335.8614854 -145.14716347 334.96597084 -145.15239179 334.04331946 C-145.15288955 333.05326415 -145.15338731 332.06320884 -145.15390015 331.04315186 C-145.16047353 329.47272924 -145.16047353 329.47272924 -145.1671797 327.87058091 C-145.18060495 324.33917458 -145.1867549 320.80779322 -145.19287109 317.27636719 C-145.20076908 314.75381862 -145.20903784 312.2312712 -145.21765137 309.70872498 C-145.24163818 302.12178018 -145.25680408 294.5348366 -145.26971143 286.94786584 C-145.27342262 284.80546518 -145.27739591 282.66306518 -145.2814641 280.52066517 C-145.30669995 267.22068107 -145.32875616 253.92069597 -145.34119225 240.62069321 C-145.34412201 237.53928371 -145.34708367 234.45787426 -145.35009766 231.37646484 C-145.35084371 230.61058171 -145.35158976 229.84469858 -145.35235842 229.05560687 C-145.36501353 216.64721981 -145.39823798 204.23897599 -145.43989949 191.8306559 C-145.48230892 179.09532289 -145.50588613 166.36006323 -145.51111281 153.62465978 C-145.51452808 146.47254275 -145.52629662 139.32064957 -145.55921555 132.16860199 C-145.59012821 125.44135283 -145.59563853 118.71456228 -145.58383179 111.9872303 C-145.58361034 109.51607116 -145.59197392 107.04489433 -145.60948563 104.57379723 C-145.63207133 101.20365116 -145.62393008 97.8349347 -145.60800171 94.46478271 C-145.6218838 93.48365029 -145.63576588 92.50251787 -145.65006864 91.49165416 C-145.59850263 87.07278736 -145.47048834 83.98610739 -142.6343174 80.46643448 C-139.94998462 77.95317206 -137.44489156 76.18396467 -134.23046875 74.40625 C-133.10688965 73.77581787 -131.98331055 73.14538574 -130.82568359 72.49584961 C-129.61297305 71.83053483 -128.40024474 71.16525244 -127.1875 70.5 C-125.92450622 69.795109 -124.66230954 69.08878803 -123.40087891 68.38110352 C-121.47183354 67.2990963 -119.54235857 66.21796227 -117.61035156 65.14125061 C-111.65152129 61.81975763 -105.75768382 58.39193854 -99.875 54.9375 C-86.19017154 46.92861651 -72.44897282 39.01823627 -58.70898438 31.10449219 C-45.72746506 23.62642744 -32.75870638 16.12786817 -19.82568359 8.56616211 C-18.01535407 7.50790527 -16.20330091 6.45258887 -14.38916016 5.40087891 C-12.89817203 4.52664123 -11.41669014 3.63572668 -9.95068359 2.72021484 C-6.11386125 0.36235067 -4.75238209 0 0 0 Z " fill="#FAFCFC" transform="translate(427,64)"/>
<path d="M0 0 C6.9064141 3.34961084 13.57269512 6.79753142 20 11 C19.83753786 11.69989491 19.67507572 12.39978981 19.50769049 13.12089366 C18.97058676 16.16680209 18.87584261 18.97335429 18.87695217 22.06570148 C18.87496112 23.29136178 18.87297007 24.51702208 18.87091869 25.7798236 C18.87377153 27.13677 18.87671713 28.49371621 18.87974548 29.85066223 C18.87930939 31.29453303 18.87843378 32.73840375 18.87715632 34.18227404 C18.87491882 38.15013667 18.87892248 42.11797233 18.88393438 46.08583152 C18.88824936 50.36458388 18.88679171 54.6433347 18.8860321 58.92208862 C18.88550754 66.3354052 18.88864735 73.74871299 18.89426994 81.16202736 C18.902394 91.88046024 18.90500109 102.59888886 18.90625793 113.31732448 C18.90844703 130.70691339 18.91510325 148.09649762 18.92456055 165.48608398 C18.93373835 182.37931291 18.94081739 199.27254057 18.94506836 216.16577148 C18.94533108 217.20691932 18.94559381 218.24806716 18.94586449 219.32076494 C18.94716952 224.54385262 18.94843323 229.76694032 18.94967639 234.99002802 C18.96004456 278.3266886 18.97765901 321.66334406 19 365 C19.66 365 20.32 365 21 365 C21 365.66 21 366.32 21 367 C13.47832428 367.83574175 8.99659649 365.4682604 3 361 C-1.61164877 356.50083047 -2.02822665 352.06534761 -2.11352539 345.83682251 C-2.11337767 344.21493686 -2.10773134 342.59304577 -2.09765625 340.97119141 C-2.09619598 340.07825378 -2.09473572 339.18531616 -2.0932312 338.26531982 C-2.08942753 336.32081171 -2.0833134 334.37630705 -2.07516479 332.43181229 C-2.06220612 329.28008592 -2.05582923 326.12840283 -2.05102539 322.97665405 C-2.03774735 315.09378904 -2.01443301 307.2109612 -1.98962402 299.328125 C-1.96575124 291.66927637 -1.94740632 284.01044265 -1.9375 276.3515625 C-1.93600008 275.21883156 -1.93450016 274.08610062 -1.93295479 272.91904449 C-1.91895172 256.03387811 -2.11487204 239.1595574 -2.42497444 222.27747726 C-3.17156237 181.55654899 -3.11820623 140.83879757 -3.07202661 100.1122278 C-3.06056457 89.81363131 -3.05528074 79.51503391 -3.05032361 69.21643257 C-3.04005208 48.14428124 -3.02262912 27.07214147 -3 6 C-2.34 6 -1.68 6 -1 6 C-1.0309375 4.7934375 -1.0309375 4.7934375 -1.0625 3.5625 C-1 1 -1 1 0 0 Z " fill="#192D34" transform="translate(257,91)"/>
<path d="M0 0 C0 6.66666667 0 13.33333333 0 20 C1.28640246 22.1976539 1.28640246 22.1976539 3 24.25 C3.556875 24.95640625 4.11375 25.6628125 4.6875 26.390625 C5.120625 26.92171875 5.55375 27.4528125 6 28 C6.598125 27.195625 7.19625 26.39125 7.8125 25.5625 C10 23 10 23 13 22 C12.94199219 23.134375 12.88398438 24.26875 12.82421875 25.4375 C12.39206927 37.05601905 12.39206927 37.05601905 18 47 C18 47.66 18 48.32 18 49 C18.66 49 19.32 49 20 49 C21.31274414 50.51293945 21.31274414 50.51293945 22.78515625 52.61328125 C23.58083008 53.7434668 23.58083008 53.7434668 24.39257812 54.89648438 C24.94365234 55.69376953 25.49472656 56.49105469 26.0625 57.3125 C26.61744141 58.09818359 27.17238281 58.88386719 27.74414062 59.69335938 C31.86248666 65.58745997 31.86248666 65.58745997 33 69 C38.7349894 64.89608887 43.91602558 60.44291685 49 55.5625 C53.660543 51.11586864 58.36053158 46.75395542 63.24438477 42.55224609 C64.99595879 41.04118948 64.99595879 41.04118948 66.50756836 39.45947266 C69.49586987 36.54004954 71.62407574 35.68398519 75.6875 35.625 C78.44836817 35.74897681 80.34044231 36.11348077 83 37 C83.14695312 38.62808594 83.14695312 38.62808594 83.296875 40.2890625 C83.44704676 41.73446565 83.59813732 43.17977353 83.75 44.625 C83.811875 45.33785156 83.87375 46.05070312 83.9375 46.78515625 C84.55948955 52.43489467 86.17587526 56.69394736 90.74609375 60.42578125 C96.25865888 63.31574034 100.63927827 64.13687617 106.8125 64.0625 C107.78832031 64.05347656 108.76414062 64.04445313 109.76953125 64.03515625 C110.50558594 64.02355469 111.24164062 64.01195312 112 64 C112.33 64.66 112.66 65.32 113 66 C112.34 66 111.68 66 111 66 C109.67008424 71.67270448 109.67008424 71.67270448 111.046875 77.15625 C112.56187474 79.29101458 112.56187474 79.29101458 115 82 C113.70719258 84.58561484 112.6092667 84.80949409 110 86 C109.15566406 86.42539062 108.31132813 86.85078125 107.44140625 87.2890625 C96.94166887 92.16139654 87.65709112 92.40847644 76.73046875 88.65625 C76.15941406 88.4396875 75.58835937 88.223125 75 88 C74.67 90.31 74.34 92.62 74 95 C73.34 95 72.68 95 72 95 C72.03480469 94.36578125 72.06960938 93.7315625 72.10546875 93.078125 C72.40140524 82.87536233 70.67935878 73.03446649 69 63 C64.93193102 65.2658546 61.49269572 68.01346526 58 71.0625 C53.38838839 75.02875293 48.70385261 78.86335197 43.875 82.5625 C43.33101562 82.97959229 42.78703125 83.39668457 42.2265625 83.82641602 C35.59118984 88.87730022 35.59118984 88.87730022 31.6875 89.6875 C27.59938286 88.92530867 27.30299135 88.71381956 25.0625 85.5 C22.17862942 80.63013938 19.73914514 75.52401597 17.24023438 70.44946289 C9.59525643 53.86382755 9.59525643 53.86382755 -3.08984375 41.32421875 C-5.2943925 39.79591194 -6.58259244 38.26964628 -8 36 C-7.75111662 32.93043828 -6.77569601 30.26478136 -5.875 27.3125 C-4.64945363 24.15041626 -4.64945363 24.15041626 -6 22 C-9.69601582 22.58078497 -12.43707508 23.59059581 -15.67578125 25.44921875 C-16.57337158 25.9601709 -17.47096191 26.47112305 -18.39575195 26.99755859 C-19.35827881 27.55523926 -20.32080566 28.11291992 -21.3125 28.6875 C-22.32723389 29.26838379 -23.34196777 29.84926758 -24.38745117 30.44775391 C-33.56506725 35.71368018 -42.70070861 41.05275229 -51.83203125 46.3984375 C-59.2801738 50.75478601 -66.75699086 55.06111758 -74.23779297 59.36108398 C-79.80103958 62.56257496 -85.34795237 65.78832299 -90.87109375 69.05859375 C-91.97388672 69.70957031 -93.07667969 70.36054688 -94.21289062 71.03125 C-96.3203103 72.27706563 -98.42462544 73.52815191 -100.52539062 74.78515625 C-101.46447266 75.33945312 -102.40355469 75.89375 -103.37109375 76.46484375 C-104.19536865 76.955896 -105.01964355 77.44694824 -105.86889648 77.95288086 C-108 79 -108 79 -111 79 C-111.13536629 76.58145554 -111.23420279 74.17050217 -111.3125 71.75 C-111.35439453 71.06808594 -111.39628906 70.38617188 -111.43945312 69.68359375 C-111.48828125 67.671875 -111.48828125 67.671875 -111 64 C-107.74846121 60.98029673 -104.15276672 58.81079314 -100.30078125 56.63671875 C-98.63088135 55.68913696 -98.63088135 55.68913696 -96.92724609 54.72241211 C-96.04489288 54.22570511 -96.04489288 54.22570511 -95.14471436 53.71896362 C-92.63313685 52.30504564 -90.12707484 50.8814735 -87.62054443 49.45863342 C-86.32383464 48.72272457 -85.02683499 47.98732624 -83.72955322 47.25242615 C-77.42563777 43.68042171 -71.14786912 40.06372472 -64.875 36.4375 C-62.72916975 35.19791133 -60.58333641 33.958328 -58.4375 32.71875 C-56.84808594 31.80029297 -56.84808594 31.80029297 -55.2265625 30.86328125 C-51.96475993 28.9796495 -48.70138156 27.09877679 -45.4375 25.21875 C-44.35162598 24.59307129 -43.26575195 23.96739258 -42.14697266 23.32275391 C-39.98539 22.07728746 -37.82360979 20.83216381 -35.66162109 19.58740234 C-30.12754555 16.39697191 -24.60574767 13.18703193 -19.1015625 9.9453125 C-17.43891357 8.96800171 -17.43891357 8.96800171 -15.74267578 7.97094727 C-13.62162506 6.7226222 -11.50271524 5.47065051 -9.38623047 4.21459961 C-8.44408691 3.6603833 -7.50194336 3.10616699 -6.53125 2.53515625 C-5.70173828 2.044104 -4.87222656 1.55305176 -4.01757812 1.04711914 C-2 0 -2 0 0 0 Z " fill="#FDACAB" transform="translate(437,198)"/>
<path d="M0 0 C2.875 0.6875 2.875 0.6875 3.875 1.6875 C3.97207611 3.95307387 3.99686621 6.22174302 3.99525452 8.48939514 C3.99653615 9.5687346 3.99653615 9.5687346 3.99784368 10.6698789 C3.9995006 13.0990358 3.99397368 15.52812477 3.98852539 17.95727539 C3.98824354 19.69139097 3.98840121 21.42550668 3.9889679 23.15962219 C3.98925595 27.88256321 3.98335799 32.60547906 3.97639394 37.3284142 C3.97016166 42.2585279 3.9695567 47.18864212 3.96836853 52.11875916 C3.96525484 61.46146362 3.95704095 70.80415644 3.94701904 80.14685577 C3.93585907 90.78029055 3.93034775 101.41372587 3.92532361 112.04716504 C3.91485836 133.9272832 3.89725819 155.80739087 3.875 177.6875 C3.215 177.6875 2.555 177.6875 1.875 177.6875 C-0.57445876 174.01331186 -0.37196768 172.25506939 -0.36550903 167.87287903 C-0.36721788 167.17611185 -0.36892673 166.47934468 -0.37068737 165.76146334 C-0.37398766 163.42135672 -0.36296987 161.08153538 -0.35205078 158.74145508 C-0.35148678 157.06615709 -0.351803 155.39085861 -0.35293579 153.71556091 C-0.35351075 149.16212166 -0.3417333 144.6087873 -0.32778788 140.05537248 C-0.31530435 135.29877644 -0.3141119 130.54217813 -0.31173706 125.78556824 C-0.30551529 116.77582282 -0.28909505 107.7661258 -0.26903808 98.75640172 C-0.24670075 88.50018582 -0.23569111 78.24396764 -0.22564721 67.98773348 C-0.20472943 46.88762861 -0.16953992 25.78756735 -0.125 4.6875 C-1.89249051 5.65107255 -3.65991953 6.61475789 -5.42732239 7.57849121 C-6.41156598 8.11513145 -7.39580957 8.6517717 -8.40987873 9.20467377 C-23.76181419 17.58892271 -38.93755875 26.27556977 -54.02734375 35.12109375 C-60.37546615 38.84084912 -66.74862113 42.51645249 -73.125 46.1875 C-82.44957074 51.55824786 -91.75672021 56.95756846 -101.04199219 62.39599609 C-106.43192467 65.54891876 -111.83791082 68.67058399 -117.265625 71.7578125 C-119.05419677 72.77820244 -120.84254358 73.79898574 -122.63085938 74.81982422 C-124.33459011 75.78950075 -126.04225239 76.75225916 -127.75 77.71484375 C-128.78640625 78.30652344 -129.8228125 78.89820313 -130.890625 79.5078125 C-131.80618164 80.02617676 -132.72173828 80.54454102 -133.66503906 81.07861328 C-136.42967469 82.8867662 -138.14360633 84.00849656 -140.125 86.6875 C-140.72873413 90.08180149 -140.64672468 93.44793987 -140.60601807 96.88726807 C-140.60943577 97.93607517 -140.61285347 98.98488227 -140.61637473 100.06547141 C-140.62298015 103.59112335 -140.60093275 107.11601938 -140.57910156 110.64160156 C-140.57797367 113.1643268 -140.57860581 115.68705336 -140.58087158 118.20977783 C-140.5817834 123.64680909 -140.57041474 129.08359554 -140.54792023 134.52057648 C-140.5154183 142.38149047 -140.50499508 150.24231161 -140.49996826 158.10328552 C-140.49121275 170.85699557 -140.46459028 183.61060332 -140.42675781 196.36425781 C-140.39004431 208.75357552 -140.36172933 221.14286544 -140.34472656 233.53222656 C-140.34367567 234.29584654 -140.34262477 235.05946651 -140.34154204 235.84622648 C-140.3363219 239.67706601 -140.33126707 243.50790574 -140.32629442 247.33874559 C-140.28482443 279.12173877 -140.21407185 310.90460349 -140.125 342.6875 C-137.88910267 341.41041956 -135.65327255 340.1332217 -133.41748047 338.85595703 C-132.78895676 338.4969783 -132.16043304 338.13799957 -131.51286316 337.7681427 C-126.75027625 335.04719234 -121.9955486 332.31307312 -117.25 329.5625 C-116.46737793 329.10931396 -115.68475586 328.65612793 -114.87841797 328.18920898 C-109.34556814 324.98248707 -103.82220344 321.75972612 -98.30102539 318.53295898 C-88.79830582 312.97975733 -79.27461656 307.46733454 -69.71191406 302.01806641 C-61.60366812 297.39645874 -53.5267895 292.72179954 -45.45458984 288.03759766 C-43.13412182 286.69278649 -40.81155598 285.35167442 -38.48828125 284.01171875 C-33.69503566 281.24638476 -28.9090639 278.4686814 -24.125 275.6875 C-23.14837402 275.12111816 -22.17174805 274.55473633 -21.16552734 273.97119141 C-18.1069944 272.19481712 -15.05302524 270.41082049 -12 268.625 C-11.03280029 268.06441895 -10.06560059 267.50383789 -9.0690918 266.92626953 C-8.17746338 266.40274902 -7.28583496 265.87922852 -6.3671875 265.33984375 C-5.5716748 264.87570068 -4.77616211 264.41155762 -3.95654297 263.93334961 C-1.98195821 262.80810175 -1.98195821 262.80810175 -1.125 260.6875 C-1.00462039 258.65589528 -0.94760878 256.6204256 -0.91967773 254.58544922 C-0.89973251 253.30427216 -0.87978729 252.02309509 -0.85923767 250.70309448 C-0.84225331 249.29946006 -0.82537451 247.89582437 -0.80859375 246.4921875 C-0.7880246 245.06014403 -0.76702814 243.62810663 -0.74562073 242.19607544 C-0.69039597 238.42483437 -0.64098853 234.65353848 -0.59277344 230.88220215 C-0.54256133 227.03469964 -0.48687376 223.18727687 -0.43164062 219.33984375 C-0.32405413 211.78913 -0.22261029 204.23835 -0.125 196.6875 C3.88281509 200.52106226 4.02815146 202.89464953 4.19140625 208.4453125 C4.21218735 209.10836395 4.23296844 209.77141541 4.25437927 210.45455933 C4.31979231 212.57376694 4.37872105 214.693099 4.4375 216.8125 C4.48069309 218.24871081 4.52430764 219.68490902 4.56835938 221.12109375 C4.67546499 224.64309594 4.77675575 228.16523825 4.875 231.6875 C5.65230469 230.73617187 6.42960938 229.78484375 7.23046875 228.8046875 C9.97033673 225.45141624 12.40003936 222.98850873 16.8984375 222.44140625 C19.0625 222.375 19.0625 222.375 22.875 222.6875 C24.875 224.6875 24.875 224.6875 24.875 228.5 C24.15882655 233.99950475 21.72856416 238.5125191 19.30859375 243.4453125 C17.39666422 247.76929481 16.48624205 252.01887536 15.875 256.6875 C17.793125 256.625625 17.793125 256.625625 19.75 256.5625 C21.9296875 256.4921875 21.9296875 256.4921875 23.875 256.6875 C25.875 258.6875 25.875 258.6875 26.19140625 261.47265625 C25.45696914 268.93489995 19.32269169 276.00979642 13.9765625 281.05078125 C2.88693317 289.6875 2.88693317 289.6875 -2.125 289.6875 C-2.15236707 288.29177948 -2.17155989 286.89589779 -2.1875 285.5 C-2.20490234 284.33404297 -2.20490234 284.33404297 -2.22265625 283.14453125 C-2.11586345 280.45762441 -1.99292819 278.24402116 -1.125 275.6875 C0.94921875 274.5 0.94921875 274.5 3.5625 273.6875 C8.29959059 272.02917847 11.24770165 270.12388791 14.875 266.6875 C14.359375 267.1 13.84375 267.5125 13.3125 267.9375 C5.30357143 273.6875 5.30357143 273.6875 -0.125 273.6875 C-0.125 271.7075 -0.125 269.7275 -0.125 267.6875 C-0.785 270.9875 -1.445 274.2875 -2.125 277.6875 C-3.115 277.6875 -4.105 277.6875 -5.125 277.6875 C-6.8125 275.1875 -6.8125 275.1875 -8.125 272.6875 C-6.94426322 276.24085404 -6.94426322 276.24085404 -4.5625 279.01953125 C-2.51409488 281.39634915 -2.75568247 282.97583024 -2.9375 286.0625 C-3.31913939 289.37004141 -3.58184369 291.10926233 -5.87890625 293.5546875 C-7.9583008 294.91031489 -9.74818111 295.96613084 -12.125 296.6875 C-15.125 295.6875 -15.125 295.6875 -16.22265625 294.0859375 C-18.32643744 289.67395913 -19.93876917 285.43242332 -21.125 280.6875 C-22.775 281.0175 -24.425 281.3475 -26.125 281.6875 C-26.125 282.3475 -26.125 283.0075 -26.125 283.6875 C-28.435 284.3475 -30.745 285.0075 -33.125 285.6875 C-33.125 286.3475 -33.125 287.0075 -33.125 287.6875 C-35.435 288.3475 -37.745 289.0075 -40.125 289.6875 C-40.125 290.3475 -40.125 291.0075 -40.125 291.6875 C-41.74749941 292.52569158 -43.37308497 293.3579116 -45 294.1875 C-45.90492188 294.6515625 -46.80984375 295.115625 -47.7421875 295.59375 C-50.125 296.6875 -50.125 296.6875 -52.125 296.6875 C-52.125 297.3475 -52.125 298.0075 -52.125 298.6875 C-54.435 299.3475 -56.745 300.0075 -59.125 300.6875 C-59.125 301.3475 -59.125 302.0075 -59.125 302.6875 C-61.435 303.3475 -63.745 304.0075 -66.125 304.6875 C-66.125 305.3475 -66.125 306.0075 -66.125 306.6875 C-67.74749941 307.52569158 -69.37308497 308.3579116 -71 309.1875 C-71.90492188 309.6515625 -72.80984375 310.115625 -73.7421875 310.59375 C-76.125 311.6875 -76.125 311.6875 -78.125 311.6875 C-78.125 312.3475 -78.125 313.0075 -78.125 313.6875 C-80.08085325 314.69234204 -82.03976237 315.69123805 -84 316.6875 C-85.63582031 317.5228125 -85.63582031 317.5228125 -87.3046875 318.375 C-90.125 319.6875 -90.125 319.6875 -92.125 319.6875 C-92.125 320.3475 -92.125 321.0075 -92.125 321.6875 C-93.74749941 322.52569158 -95.37308497 323.3579116 -97 324.1875 C-97.90492188 324.6515625 -98.80984375 325.115625 -99.7421875 325.59375 C-102.125 326.6875 -102.125 326.6875 -104.125 326.6875 C-104.125 327.3475 -104.125 328.0075 -104.125 328.6875 C-106.435 329.3475 -108.745 330.0075 -111.125 330.6875 C-111.125 331.3475 -111.125 332.0075 -111.125 332.6875 C-112.775 333.0175 -114.425 333.3475 -116.125 333.6875 C-116.125 334.3475 -116.125 335.0075 -116.125 335.6875 C-118.435 336.3475 -120.745 337.0075 -123.125 337.6875 C-123.125 338.3475 -123.125 339.0075 -123.125 339.6875 C-125.435 340.3475 -127.745 341.0075 -130.125 341.6875 C-130.125 342.3475 -130.125 343.0075 -130.125 343.6875 C-132.435 344.3475 -134.745 345.0075 -137.125 345.6875 C-137.125 346.3475 -137.125 347.0075 -137.125 347.6875 C-139.435 347.6875 -141.745 347.6875 -144.125 347.6875 C-144.125 347.0275 -144.125 346.3675 -144.125 345.6875 C-144.785 345.6875 -145.445 345.6875 -146.125 345.6875 C-146.06613813 312.65009031 -145.99160552 279.61275912 -145.89601372 246.57543637 C-145.88474536 242.67634918 -145.87360694 238.77726162 -145.86254883 234.87817383 C-145.86034514 234.10192554 -145.85814146 233.32567725 -145.855871 232.52590629 C-145.82048475 219.95190059 -145.79562812 207.37789495 -145.77465298 194.8038579 C-145.75290149 181.9047023 -145.7198573 169.0056114 -145.67629844 156.10651082 C-145.64977044 148.14508357 -145.63208355 140.18373697 -145.62565396 132.22226771 C-145.61978349 126.12057833 -145.59821241 120.01904826 -145.57072449 113.91741371 C-145.56191026 111.41200025 -145.55822864 108.90656283 -145.55999184 106.40113449 C-145.56163632 102.98700144 -145.54501515 99.57343377 -145.52372742 96.15937805 C-145.52857499 95.1622957 -145.53342257 94.16521335 -145.53841704 93.13791639 C-145.48724502 88.18313895 -145.40048038 84.6879847 -142.125 80.6875 C-140.45288086 79.34814453 -140.45288086 79.34814453 -138.58984375 78.3203125 C-137.87618652 77.9173999 -137.1625293 77.5144873 -136.42724609 77.09936523 C-135.25669678 76.46236694 -135.25669678 76.46236694 -134.0625 75.8125 C-132.34475791 74.84818008 -130.62732736 73.88330506 -128.91015625 72.91796875 C-127.51821045 72.14332275 -127.51821045 72.14332275 -126.09814453 71.35302734 C-120.70172269 68.33000306 -115.35449752 65.22146902 -110 62.125 C-108.88270508 61.48087158 -107.76541016 60.83674316 -106.61425781 60.1730957 C-100.49596837 56.64487013 -94.39213329 53.09438776 -88.3125 49.5 C-81.2725394 45.33845543 -74.1788501 41.27499822 -67.07446289 37.22460938 C-61.12415208 33.83158742 -55.18051904 30.42751513 -49.25 27 C-48.47615967 26.55301758 -47.70231934 26.10603516 -46.9050293 25.64550781 C-43.14111699 23.46364549 -39.39523521 21.25691418 -35.67578125 19 C-34.9801709 18.57807373 -34.28456055 18.15614746 -33.56787109 17.72143555 C-32.26477365 16.92774228 -30.96416169 16.12994864 -29.66650391 15.32739258 C-25.34202721 12.6875 -25.34202721 12.6875 -23.125 12.6875 C-23.125 12.0275 -23.125 11.3675 -23.125 10.6875 C-22.37609497 10.29425537 -22.37609497 10.29425537 -21.61206055 9.89306641 C-19.34464306 8.70124241 -17.07856175 7.50689956 -14.8125 6.3125 C-14.02681641 5.9 -13.24113281 5.4875 -12.43164062 5.0625 C-11.67431641 4.66289063 -10.91699219 4.26328125 -10.13671875 3.8515625 C-9.44022217 3.48498535 -8.74372559 3.1184082 -8.02612305 2.74072266 C-2.60818181 -0.26081818 -2.60818181 -0.26081818 0 0 Z " fill="#05B177" transform="translate(453.125,69.3125)"/>
<path d="M0 0 C3.94103663 2.02809839 7.73887222 4.3931199 10.40625 7.98828125 C10.40625 9.30828125 10.40625 10.62828125 10.40625 11.98828125 C9.08705566 12.39203979 9.08705566 12.39203979 7.74121094 12.80395508 C4.5738479 13.92876314 1.94089847 15.24304874 -0.953125 16.9375 C-1.97277344 17.53046875 -2.99242187 18.1234375 -4.04296875 18.734375 C-5.13222656 19.37503906 -6.22148437 20.01570313 -7.34375 20.67578125 C-8.50095972 21.35084764 -9.65851857 22.02531587 -10.81640625 22.69921875 C-13.21945582 24.0984393 -15.6209892 25.5002106 -18.02148438 26.90380859 C-23.53161812 30.1227749 -29.06382617 33.3034797 -34.59375 36.48828125 C-36.76051979 37.73810249 -38.92718615 38.98810305 -41.09375 40.23828125 C-80.09375 62.73828125 -80.09375 62.73828125 -83.34643555 64.61474609 C-85.50424803 65.85969407 -87.66196353 67.10481015 -89.81958008 68.35009766 C-95.37091592 71.55380776 -100.92411541 74.75421755 -106.48046875 77.94921875 C-112.85804346 81.61775528 -119.22961002 85.29648621 -125.59375 88.98828125 C-126.42696777 89.47119629 -127.26018555 89.95411133 -128.11865234 90.45166016 C-130.23990418 91.68549086 -132.35561393 92.92811616 -134.46875 94.17578125 C-135.57992187 94.82933594 -136.69109375 95.48289062 -137.8359375 96.15625 C-140.4457347 97.88995381 -142.48076635 99.68645606 -144.59375 101.98828125 C-145.87958984 101.17423828 -145.87958984 101.17423828 -147.19140625 100.34375 C-148.34619232 99.62083515 -149.50114946 98.89819352 -150.65625 98.17578125 C-151.21763672 97.81935547 -151.77902344 97.46292969 -152.35742188 97.09570312 C-156.31026816 94.63364458 -160.27462454 92.73243764 -164.59375 90.98828125 C-164.92375 92.63828125 -165.25375 94.28828125 -165.59375 95.98828125 C-166.25375 95.98828125 -166.91375 95.98828125 -167.59375 95.98828125 C-167.21404348 90.67239003 -165.49971932 87.49018478 -161.59375 83.98828125 C-157.45917584 81.2456232 -153.12824513 78.87283014 -148.78125 76.48828125 C-147.51825622 75.78339025 -146.25605954 75.07706928 -144.99462891 74.36938477 C-143.06558354 73.28737755 -141.13610857 72.20624352 -139.20410156 71.12953186 C-133.24527129 67.80803888 -127.35143382 64.38021979 -121.46875 60.92578125 C-109.96626796 54.19409011 -98.42449911 47.53171395 -86.87597656 40.87939453 C-80.3701539 37.13094895 -73.86730917 33.37733944 -67.36401367 29.62451172 C-61.83637719 26.4349933 -56.30775619 23.24720304 -50.77734375 20.0625 C-49.65730957 19.41676025 -48.53727539 18.77102051 -47.38330078 18.10571289 C-45.17128254 16.83215104 -42.95744884 15.56173657 -40.74169922 14.29467773 C-35.96903651 11.5577912 -31.23583265 8.79663495 -26.60546875 5.82421875 C-17.84346602 0.23831161 -10.52658298 -4.1060015 0 0 Z " fill="#2F4952" transform="translate(421.59375,1.01171875)"/>
<path d="M0 0 C7.20242005 4.46962998 10.74881177 10.55153661 12.67114258 18.67138672 C13.49939767 22.77158072 13.98238348 26.9142479 14.50390625 31.0625 C15.33436683 37.37653196 16.37196341 43.30806349 18.31640625 49.375 C20.54152945 56.64777621 22.28892863 64.98463619 19.12890625 72.23046875 C15.00135571 77.7299608 8.45060219 80.29939724 1.80078125 81.28125 C-5.02861543 81.56779811 -11.69611702 79.80627929 -17.24609375 75.75 C-22.98870088 69.59720665 -23.35432228 62.46828702 -23.55859375 54.4375 C-23.59275391 53.5196875 -23.62691406 52.601875 -23.66210938 51.65625 C-23.74375639 49.4167891 -23.81316913 47.1776785 -23.87109375 44.9375 C-24.83402344 44.80472656 -25.79695312 44.67195313 -26.7890625 44.53515625 C-29.87109375 43.9375 -29.87109375 43.9375 -31.18359375 42.375 C-32.16023255 38.91237154 -32.51301722 35.51826529 -32.87109375 31.9375 C-33.53109375 31.9375 -34.19109375 31.9375 -34.87109375 31.9375 C-34.70222656 31.26589844 -34.53335937 30.59429687 -34.359375 29.90234375 C-33.57731179 25.15365594 -34.01854027 20.42309299 -34.2265625 15.62890625 C-33.74784867 10.65764723 -31.7258889 7.8919133 -28.34375 4.328125 C-20.52007073 -2.00016959 -9.53641514 -3.52912234 0 0 Z " fill="#2F4952" transform="translate(542.87109375,182.0625)"/>
<path d="M0 0 C3.06597965 2.10786101 3.78439002 2.64855191 5 6 C5.71591396 13.44217538 5.11889278 20.63252136 4 28 C3.55391632 31.4520794 3.28006612 34.57468959 4 38 C6.01019809 40.53787509 8.26784639 42.28543421 11 44 C12.71320508 35.50939873 14.29891856 27.23602423 14.59375 18.55078125 C15.2363994 14.51568455 17.14967539 11.85032461 20 9 C23.83673259 8.48843566 25.52670667 8.69498874 28.8125 10.8125 C32.82754448 14.82754448 32.35436779 19.4739861 32.38720703 24.88720703 C32.09263132 38.78522295 23.9882296 50.22356963 14.96875 60.1796875 C12.51618199 62.44733967 10.28327351 63.42542714 7 64 C7.37511719 63.5153125 7.75023437 63.030625 8.13671875 62.53125 C11.71491472 57.8444442 14.96265326 53.05328484 18 48 C17.67128906 48.44988281 17.34257813 48.89976562 17.00390625 49.36328125 C15.35623462 51.5914334 13.68092403 53.79681356 12 56 C11.31164062 56.91394531 10.62328125 57.82789063 9.9140625 58.76953125 C5.18423547 64.83532697 0.67076041 69.18442887 -6 73 C-6.94875 73.61875 -7.8975 74.2375 -8.875 74.875 C-11 76 -11 76 -14 76 C-14 76.66 -14 77.32 -14 78 C-15.72718516 78.96189997 -17.45684058 79.91936508 -19.1875 80.875 C-20.15042969 81.40867187 -21.11335938 81.94234375 -22.10546875 82.4921875 C-24.69739518 83.8423678 -27.26761098 84.97098329 -30 86 C-32.03515625 84.01953125 -32.03515625 84.01953125 -34 81 C-33.99709466 78.0801308 -33.82730921 75.54881221 -33.4375 72.6875 C-32.65563577 65.58637306 -32.65563577 65.58637306 -35.375 59.125 C-36.24542994 58.07951152 -37.11975161 57.03723537 -38 56 C-39.45438664 51.63684009 -39.61127826 47.55547849 -39 43 C-36.91391493 39.66226388 -35.38911818 38.33843166 -31.546875 37.40234375 C-29.80780871 37.0997869 -28.05911263 36.84698362 -26.3046875 36.65234375 C-23.94631201 36.15960026 -23.94631201 36.15960026 -22.31640625 34.55078125 C-19.92399165 29.91503427 -19.47158792 24.72287229 -18.62695312 19.6171875 C-17.38536175 12.69752344 -15.51599047 6.79554496 -10.75 1.5 C-7.03209988 -0.52794552 -4.13291634 -1.02489659 0 0 Z " fill="#0CB47B" transform="translate(107,389)"/>
<path d="M0 0 C4.19473196 2.70327171 6.97734599 6.18540229 8.8125 10.8125 C10.21755646 25.1734841 6.75492156 37.20802151 -0.1875 49.8125 C-0.8475 49.8125 -1.5075 49.8125 -2.1875 49.8125 C-2.39246094 49.17441406 -2.59742188 48.53632813 -2.80859375 47.87890625 C-3.07800781 47.05261719 -3.34742188 46.22632813 -3.625 45.375 C-3.89183594 44.55128906 -4.15867187 43.72757813 -4.43359375 42.87890625 C-5.00905494 40.85030412 -5.00905494 40.85030412 -6.1875 39.8125 C-12.16704898 38.92192888 -15.75940478 40.72944096 -20.7578125 43.98828125 C-29.64947306 50.66417431 -33.21019682 59.05364448 -35.1875 69.8125 C-38.62561794 69.52599017 -39.92921193 69.07816773 -42.375 66.5625 C-47.70078191 58.48200332 -47.75443722 50.22017569 -45.97265625 40.921875 C-42.13641308 25.72958863 -33.22676948 11.53298078 -20 2.875 C-13.47655341 -0.86373421 -7.31220448 -2.72415461 0 0 Z " fill="#05B278" transform="translate(401.1875,130.1875)"/>
<path d="M0 0 C0.88649904 5.35182756 1.62940065 10.72346424 0 16 C-3.54308236 19.70854031 -7.82759469 21.59059584 -12.41064453 23.72998047 C-17.53336662 26.24255829 -22.39410553 29.23878505 -27.3125 32.125 C-29.57810634 33.43197965 -31.84505563 34.73663384 -34.11328125 36.0390625 C-40.74590835 39.8529401 -47.37358974 43.67533357 -54 47.5 C-60.62641026 51.32466643 -67.25409165 55.1470599 -73.88671875 58.9609375 C-76.15370754 60.26551777 -78.42063562 61.57020356 -80.6875 62.875 C-82.31377319 63.81001343 -82.31377319 63.81001343 -83.97290039 64.76391602 C-90.62022659 68.59554242 -97.23314928 72.47666598 -103.72729492 76.56396484 C-106.41769518 78.22341839 -107.76468929 79 -111 79 C-112.53108226 73.54197527 -113.50235645 68.30466107 -111 63 C-105.31599626 57.45214865 -97.51201562 54.24699475 -90.47265625 50.76074219 C-84.88705195 47.92867116 -79.52275529 44.73371204 -74.125 41.5625 C-71.94131966 40.30127856 -69.75641557 39.04217363 -67.5703125 37.78515625 C-61.04513756 34.02644618 -54.52237326 30.26356905 -48 26.5 C-45.85808102 25.26430886 -43.71615391 24.02863183 -41.57421875 22.79296875 C-37.59537568 20.49750542 -33.61669227 18.20176586 -29.63821411 15.90567017 C-27.84933082 14.87326522 -26.06041283 13.84092044 -24.27148438 12.80859375 C-22.02662364 11.51314052 -19.7818281 10.2175743 -17.53710938 8.921875 C-15.55498363 7.7780992 -13.57213093 6.63558177 -11.58837891 5.49462891 C-9.98204251 4.56706888 -8.37939541 3.63304926 -6.78271484 2.68896484 C-2.20923675 0 -2.20923675 0 0 0 Z " fill="#02B175" transform="translate(437,254)"/>
<path d="M0 0 C0 5.28 0 10.56 0 16 C-4.27709699 16 -5.55930376 15.29379749 -9 13 C-8.01 16.465 -8.01 16.465 -7 20 C-12.45758604 23.92563206 -18.17724825 27.27161924 -24.0625 30.5 C-31.27239653 34.4567245 -38.40381839 38.53024641 -45.5 42.6875 C-55.05621442 48.28496256 -64.63481327 53.84135001 -74.23657227 59.36035156 C-79.80020765 62.56211774 -85.34754418 65.7880813 -90.87109375 69.05859375 C-91.97388672 69.70957031 -93.07667969 70.36054688 -94.21289062 71.03125 C-96.3203103 72.27706563 -98.42462544 73.52815191 -100.52539062 74.78515625 C-101.46447266 75.33945312 -102.40355469 75.89375 -103.37109375 76.46484375 C-104.19536865 76.955896 -105.01964355 77.44694824 -105.86889648 77.95288086 C-108 79 -108 79 -111 79 C-111.13536629 76.58145554 -111.23420279 74.17050217 -111.3125 71.75 C-111.35439453 71.06808594 -111.39628906 70.38617188 -111.43945312 69.68359375 C-111.48828125 67.671875 -111.48828125 67.671875 -111 64 C-107.74846121 60.98029673 -104.15276672 58.81079314 -100.30078125 56.63671875 C-98.63088135 55.68913696 -98.63088135 55.68913696 -96.92724609 54.72241211 C-96.04489288 54.22570511 -96.04489288 54.22570511 -95.14471436 53.71896362 C-92.63313685 52.30504564 -90.12707484 50.8814735 -87.62054443 49.45863342 C-86.32383464 48.72272457 -85.02683499 47.98732624 -83.72955322 47.25242615 C-77.42563777 43.68042171 -71.14786912 40.06372472 -64.875 36.4375 C-62.72916975 35.19791133 -60.58333641 33.958328 -58.4375 32.71875 C-56.84808594 31.80029297 -56.84808594 31.80029297 -55.2265625 30.86328125 C-51.96475993 28.9796495 -48.70138156 27.09877679 -45.4375 25.21875 C-44.35162598 24.59307129 -43.26575195 23.96739258 -42.14697266 23.32275391 C-39.98539 22.07728746 -37.82360979 20.83216381 -35.66162109 19.58740234 C-30.12754555 16.39697191 -24.60574767 13.18703193 -19.1015625 9.9453125 C-17.43891357 8.96800171 -17.43891357 8.96800171 -15.74267578 7.97094727 C-13.62162506 6.7226222 -11.50271524 5.47065051 -9.38623047 4.21459961 C-8.44408691 3.6603833 -7.50194336 3.10616699 -6.53125 2.53515625 C-5.70173828 2.044104 -4.87222656 1.55305176 -4.01757812 1.04711914 C-2 0 -2 0 0 0 Z " fill="#02B075" transform="translate(437,198)"/>
<path d="M0 0 C0.99 0 1.98 0 3 0 C3.14695312 1.62808594 3.14695312 1.62808594 3.296875 3.2890625 C3.44704676 4.73446565 3.59813732 6.17977353 3.75 7.625 C3.811875 8.33785156 3.87375 9.05070313 3.9375 9.78515625 C4.55948955 15.43489467 6.17587526 19.69394736 10.74609375 23.42578125 C16.25865888 26.31574034 20.63927827 27.13687617 26.8125 27.0625 C28.27623047 27.04896484 28.27623047 27.04896484 29.76953125 27.03515625 C30.50558594 27.02355469 31.24164062 27.01195312 32 27 C32.495 27.99 32.495 27.99 33 29 C32.34 29 31.68 29 31 29 C29.67008424 34.67270448 29.67008424 34.67270448 31.046875 40.15625 C32.56187474 42.29101458 32.56187474 42.29101458 35 45 C33.70719258 47.58561484 32.6092667 47.80949409 30 49 C28.73349609 49.63808594 28.73349609 49.63808594 27.44140625 50.2890625 C16.94166887 55.16139654 7.65709112 55.40847644 -3.26953125 51.65625 C-3.84058594 51.4396875 -4.41164063 51.223125 -5 51 C-5.33 53.31 -5.66 55.62 -6 58 C-6.66 58 -7.32 58 -8 58 C-7.96519531 56.89205078 -7.96519531 56.89205078 -7.9296875 55.76171875 C-7.83519761 50.4500373 -7.96026132 45.47065973 -9 40.25 C-9.91604667 35.64321458 -10.4855008 31.69317445 -10 27 C-8.25 24.625 -8.25 24.625 -6 22 C-2.38651743 14.99400322 -1.01316985 7.75874803 0 0 Z " fill="#A4F3EA" transform="translate(517,235)"/>
<path d="M0 0 C0.10806144 2.91765891 0.18732877 5.83131125 0.25 8.75 C0.30027344 9.9875 0.30027344 9.9875 0.3515625 11.25 C0.36445313 12.04921875 0.37734375 12.8484375 0.390625 13.671875 C0.41157227 14.4050293 0.43251953 15.13818359 0.45410156 15.89355469 C-0.20347903 18.94388014 -1.61846983 20.02041794 -4 22 C-5.97070849 23.26298411 -7.98377226 24.46107779 -10.0234375 25.609375 C-10.60606354 25.93987854 -11.18868958 26.27038208 -11.78897095 26.61090088 C-13.64757604 27.6634345 -15.51108468 28.70690476 -17.375 29.75 C-19.19382949 30.77640552 -21.0116214 31.80463243 -22.82940674 32.83288574 C-24.04096559 33.5165752 -25.25381748 34.19797839 -26.46795654 34.8770752 C-29.64698192 36.65675196 -32.80186539 38.46720748 -35.93066406 40.33398438 C-36.56726959 40.70992737 -37.20387512 41.08587036 -37.85977173 41.47320557 C-39.07892292 42.19479893 -40.29336752 42.92442088 -41.50228882 43.6630249 C-42.95843833 44.51986119 -44.4765237 45.26954823 -46 46 C-46.99 45.67 -47.98 45.34 -49 45 C-49.13548815 42.26916098 -49.23429855 39.54508193 -49.3125 36.8125 C-49.35439453 36.04357422 -49.39628906 35.27464844 -49.43945312 34.48242188 C-49.45556641 33.73154297 -49.47167969 32.98066406 -49.48828125 32.20703125 C-49.51446533 31.5210083 -49.54064941 30.83498535 -49.56762695 30.12817383 C-48.43073021 25.86566678 -44.79794331 23.53084514 -41.26782227 21.18237305 C-40.29385498 20.63105713 -39.3198877 20.07974121 -38.31640625 19.51171875 C-37.2298877 18.89111572 -36.14336914 18.2705127 -35.02392578 17.63110352 C-33.88165527 16.98971436 -32.73938477 16.3483252 -31.5625 15.6875 C-30.38488491 15.02010054 -29.20763978 14.35204787 -28.03076172 13.68334961 C-25.72792428 12.37571999 -23.4229897 11.07206788 -21.11669922 9.77050781 C-18.50131124 8.2847806 -15.90321326 6.77688239 -13.31640625 5.2421875 C-12.67437256 4.86360596 -12.03233887 4.48502441 -11.37084961 4.0949707 C-9.75807884 3.14120094 -8.14842659 2.18216319 -6.5390625 1.22265625 C-4 0 -4 0 0 0 Z " fill="#A7E4D0" transform="translate(416,299)"/>
<path d="M0 0 C0 20.46 0 40.92 0 62 C-5.56043267 60.60989183 -7.82081185 57.65048685 -11 53 C-14.70852914 45.03887606 -16.15864413 37.59696528 -16.09765625 28.85546875 C-16.09553383 27.7007885 -16.09553383 27.7007885 -16.09336853 26.52278137 C-16.08779606 24.07764712 -16.07524871 21.63260632 -16.0625 19.1875 C-16.05748144 17.52408987 -16.05291915 15.8606783 -16.04882812 14.19726562 C-16.03783566 10.13147472 -16.0205901 6.06575317 -16 2 C-14.64832143 1.65671655 -13.29345725 1.32597303 -11.9375 1 C-10.80634766 0.7215625 -10.80634766 0.7215625 -9.65234375 0.4375 C-7 0 -7 0 0 0 Z " fill="#F2F4F4" transform="translate(254,276)"/>
<path d="M0 0 C3.34699336 3.69930845 4.76254902 7.03852435 5 12 C3.375 14.5625 3.375 14.5625 1 17 C0.16597656 17.85851562 -0.66804688 18.71703125 -1.52734375 19.6015625 C-2.34332031 20.39304688 -3.15929687 21.18453125 -4 22 C-4.62003906 22.60585937 -5.24007813 23.21171875 -5.87890625 23.8359375 C-13.04411292 30.38603362 -18.90187138 32.47864802 -28.65625 32.140625 C-29.4296875 32.09421875 -30.203125 32.0478125 -31 32 C-30.34 31.67 -29.68 31.34 -29 31 C-28.896875 29.700625 -28.79375 28.40125 -28.6875 27.0625 C-27.9208306 18.88902457 -23.95848003 12.04832299 -17.953125 6.5390625 C-12.60278488 2.32299449 -7.04777299 -1.5201079 0 0 Z " fill="#A3F4EB" transform="translate(395,169)"/>
<path d="M0 0 C0.33 0 0.66 0 1 0 C1.07476563 0.72960937 1.14953125 1.45921875 1.2265625 2.2109375 C2.22309677 10.12459199 4.19440326 17.17861702 6.96728516 24.64208984 C8.62401502 29.23979661 9.57815424 33.04188941 9 38 C7.57421875 40.94921875 7.57421875 40.94921875 5.6875 43.6875 C5.07261719 44.59886719 4.45773437 45.51023437 3.82421875 46.44921875 C2.24533731 48.65694805 0.63056398 50.8304821 -1 53 C-1.66 53.99 -2.32 54.98 -3 56 C-7 48 -7 48 -11 40 C-10.2265625 39.4121875 -10.2265625 39.4121875 -9.4375 38.8125 C-7.72296529 37.08757952 -7.72296529 37.08757952 -8.25 34.75 C-9.07781802 31.71466727 -10.22498127 29.03401422 -11.5625 26.1875 C-12.01753906 25.21167969 -12.47257813 24.23585938 -12.94140625 23.23046875 C-13.29074219 22.49441406 -13.64007812 21.75835937 -14 21 C-11.6896955 19.23857994 -9.39715116 17.61860584 -6.9375 16.0625 C-3.39670456 13.57640958 -1.34618921 11.74415939 -0.48828125 7.421875 C-0.43027344 6.54015625 -0.37226562 5.6584375 -0.3125 4.75 C-0.24675781 3.85796875 -0.18101562 2.9659375 -0.11328125 2.046875 C-0.07589844 1.37140625 -0.03851562 0.6959375 0 0 Z " fill="#FA9797" transform="translate(563,242)"/>
<path d="M0 0 C2.64 0 5.28 0 8 0 C8.24803781 2.79117245 8.47414334 5.58115074 8.6875 8.375 C8.76033203 9.1690625 8.83316406 9.963125 8.90820312 10.78125 C9.07421875 13.0859375 9.07421875 13.0859375 9 17 C8.01 17.66 7.02 18.32 6 19 C4.7811879 22.55672179 4.7811879 22.55672179 4 26 C-1.21963847 27.22161751 -4.40982315 26.84062204 -9.39453125 24.953125 C-13.54530324 23.43470166 -17.82312531 22.33555323 -22.08203125 21.16015625 C-25.21742018 19.91355583 -26.81573092 18.53332903 -29 16 C-27.25 12.125 -27.25 12.125 -25 11 C-22.48161394 11.06353726 -20.00908544 11.18740483 -17.5 11.375 C-16.46552734 11.44074219 -16.46552734 11.44074219 -15.41015625 11.5078125 C-10.26179847 11.86910077 -10.26179847 11.86910077 -8 13 C-8.33 11.35 -8.66 9.7 -9 8 C-6.36 7.34 -3.72 6.68 -1 6 C0.08084521 2.36380344 0.08084521 2.36380344 0 0 Z " fill="#F2A6A5" transform="translate(542,437)"/>
<path d="M0 0 C0.33 0 0.66 0 1 0 C1.65563326 9.23193818 2.30783954 18.46411038 2.95575714 27.69659328 C3.25676571 31.98429045 3.55892278 36.27190004 3.86376953 40.55932617 C4.15830606 44.70235978 4.44974085 48.8456013 4.73908997 52.98900032 C4.84962639 54.56418597 4.96125167 56.13929563 5.07402039 57.71432304 C5.62959824 65.48345769 6.15397769 73.20487929 6 81 C4.54722697 78.20004711 3.67723598 75.93796621 3.25390625 72.8046875 C3.14071045 72.01102783 3.02751465 71.21736816 2.91088867 70.3996582 C2.79592041 69.566521 2.68095215 68.73338379 2.5625 67.875 C0.75996708 55.89013378 -1.17749628 46.82250372 -10 38 C-9.88305664 36.09179688 -9.88305664 36.09179688 -9.34765625 33.71875 C-9.14672363 32.82285156 -8.94579102 31.92695313 -8.73876953 31.00390625 C-7.38057184 25.48134696 -5.93254953 19.98698591 -4.4375 14.5 C-4.12103516 13.32179688 -3.80457031 12.14359375 -3.47851562 10.9296875 C-1.13375235 2.2675047 -1.13375235 2.2675047 0 0 Z " fill="#EAF2F1" transform="translate(533,334)"/>
<path d="M0 0 C0.515625 0.2475 1.03125 0.495 1.5625 0.75 C1.9375 2.9375 1.9375 2.9375 1.5625 5.75 C-3.86985637 11.15361375 -10.75546084 14.56727065 -17.375 18.3125 C-18.5413244 18.97797476 -19.70734244 19.64398673 -20.87304688 20.31054688 C-23.08986417 21.57602778 -25.30899328 22.83747027 -27.53076172 24.09423828 C-29.89423552 25.44054093 -32.23125599 26.82062349 -34.56640625 28.21484375 C-37.4375 29.75 -37.4375 29.75 -40.4375 29.75 C-40.75 26.5 -40.75 26.5 -40.4375 22.75 C-37.13624866 19.65653021 -33.42290166 17.4559438 -29.5078125 15.21875 C-27.81978516 14.25001953 -27.81978516 14.25001953 -26.09765625 13.26171875 C-24.9193267 12.59104767 -23.74094088 11.92047545 -22.5625 11.25 C-21.39170439 10.57981597 -20.22112956 9.90924609 -19.05078125 9.23828125 C-16.82338872 7.96293993 -14.59406698 6.69096027 -12.36254883 5.42285156 C-10.61468649 4.42323945 -8.87265688 3.41314985 -7.14331055 2.38183594 C-2.68299001 -0.27517846 -2.68299001 -0.27517846 0 0 Z " fill="#A7E4D1" transform="translate(366.4375,215.25)"/>
<path d="M0 0 C1.67542976 0.28604898 3.34385343 0.61781233 5 1 C4.75178573 4.64047591 4.59883957 6.45185764 1.8515625 8.96655273 C-1.15862983 11.11311883 -4.21889333 12.96585279 -7.4375 14.78515625 C-8.04005615 15.12751816 -8.6426123 15.46988007 -9.26342773 15.82261658 C-11.17331738 16.90670034 -13.08651552 17.98477647 -15 19.0625 C-16.91271881 20.14510271 -18.82473897 21.22892949 -20.73657227 22.31309509 C-22.4703777 23.29546024 -24.20584631 24.27488829 -25.94140625 25.25415039 C-27.89203834 26.36757393 -29.8201532 27.52211011 -31.71484375 28.72827148 C-34 30 -34 30 -37 30 C-37.5 26.875 -37.5 26.875 -37 23 C-31.18501923 16.70126209 -21.99501371 12.85080056 -14.5625 8.6875 C-12.62840594 7.59841484 -10.69521619 6.50776071 -8.76292419 5.41548157 C-7.02926833 4.43634178 -5.29314033 3.46158298 -3.55688477 2.48706055 C-1.1448396 1.23009007 -1.1448396 1.23009007 0 0 Z " fill="#A7E4D1" transform="translate(363,271)"/>
<path d="M0 0 C0.33 0 0.66 0 1 0 C1.04898438 0.81984375 1.09796875 1.6396875 1.1484375 2.484375 C1.22320313 3.56203125 1.29796875 4.6396875 1.375 5.75 C1.44460938 6.81734375 1.51421875 7.8846875 1.5859375 8.984375 C1.9728223 11.80206432 2.55686166 13.5830366 4 16 C4.66 15.34 5.32 14.68 6 14 C8.625 13.875 8.625 13.875 11 14 C12.32727273 19.30909091 12.32727273 19.30909091 10.875 22.375 C9 24 9 24 4 24 C4 28.29 4 32.58 4 37 C3.34 36.34 2.68 35.68 2 35 C0.515 34.814375 0.515 34.814375 -1 34.625 C-4 34 -4 34 -5.3125 32.4375 C-6.2891388 28.97487154 -6.64192347 25.58076529 -7 22 C-7.66 22 -8.32 22 -9 22 C-8.34 18.37 -7.68 14.74 -7 11 C-6.34 11 -5.68 11 -5 11 C-4.9175 10.113125 -4.835 9.22625 -4.75 8.3125 C-3.90373668 4.57483702 -2.60176369 2.76437392 0 0 Z " fill="#F9ABAA" transform="translate(517,192)"/>
<path d="M0 0 C0.19335938 1.09957031 0.38671875 2.19914062 0.5859375 3.33203125 C2.03424243 11.55896207 3.49162966 19.78381802 5 28 C-2.22942207 28.61266289 -2.22942207 28.61266289 -5.53515625 25.984375 C-8.4225354 22.48840405 -10.04700525 19.1033459 -11.75 14.9375 C-12.05292969 14.23044922 -12.35585937 13.52339844 -12.66796875 12.79492188 C-14.03335295 9.5635126 -15.20957635 6.41495088 -16 3 C-14.27318563 2.49193553 -12.54342021 1.99389533 -10.8125 1.5 C-9.84957031 1.2215625 -8.88664063 0.943125 -7.89453125 0.65625 C-5.14654124 0.03322392 -2.80401584 -0.12302812 0 0 Z " fill="#E7F1EE" transform="translate(193,287)"/>
<path d="M0 0 C0.375 2.1875 0.375 2.1875 0 5 C-5.4585851 10.43926268 -12.40442815 13.8617022 -19.0625 17.625 C-20.245759 18.29892413 -21.42870433 18.9733993 -22.61132812 19.6484375 C-24.78620789 20.88909909 -26.96255576 22.12719338 -29.14086914 23.36181641 C-30.99906635 24.42649946 -32.82956459 25.54161464 -34.62280273 26.71240234 C-37 28 -37 28 -41 28 C-41.3125 25.8125 -41.3125 25.8125 -41 23 C-37.17060908 18.43476534 -32.73567841 15.92791599 -27.5625 13.1875 C-25.95645146 12.32008305 -24.35098967 11.45157893 -22.74609375 10.58203125 C-21.94929199 10.15229004 -21.15249023 9.72254883 -20.33154297 9.27978516 C-18.1467166 8.08053282 -15.99327754 6.84201488 -13.84765625 5.57421875 C-13.21593506 5.20208252 -12.58421387 4.82994629 -11.93334961 4.4465332 C-10.22631127 3.43503175 -8.52318329 2.41693942 -6.8203125 1.3984375 C-4 0 -4 0 0 0 Z " fill="#2A454E" transform="translate(384,68)"/>
<path d="M0 0 C0.495 3.465 0.495 3.465 1 7 C0.01 7.66 -0.98 8.32 -2 9 C-3.2188121 12.55672179 -3.2188121 12.55672179 -4 16 C-9.21963847 17.22161751 -12.40982315 16.84062204 -17.39453125 14.953125 C-21.54530324 13.43470166 -25.82312531 12.33555323 -30.08203125 11.16015625 C-33.21742018 9.91355583 -34.81573092 8.53332903 -37 6 C-36.34 4.68 -35.68 3.36 -35 2 C-32.69 2 -30.38 2 -28 2 C-28.33 2.99 -28.66 3.98 -29 5 C-20.95073076 8.11584616 -13.56674915 8.33328851 -5 8 C-5 5.69 -5 3.38 -5 1 C-2 0 -2 0 0 0 Z " fill="#324A53" transform="translate(550,447)"/>
<path d="M0 0 C1.6875 0.9375 1.6875 0.9375 2.6875 2.9375 C2.85407213 8.77942249 1.58993465 12.91992375 -1.9609375 17.52734375 C-3.3125 18.9375 -3.3125 18.9375 -6.3125 20.9375 C-10.85304054 20.39695946 -10.85304054 20.39695946 -12.3125 18.9375 C-12.70207682 14.34049355 -12.79795076 11.88973034 -10.6875 7.75 C-4.05060922 -0.10947592 -4.05060922 -0.10947592 0 0 Z " fill="#A4F5EC" transform="translate(387.3125,147.0625)"/>
<path d="M0 0 C0.33 0 0.66 0 1 0 C1.11275269 1.10903687 1.11275269 1.10903687 1.2277832 2.24047852 C1.84113209 26.96906906 1.84113209 26.96906906 11.40625 48.29101562 C13.14803804 49.69481384 14.92972727 51.01210609 16.75 52.3125 C17.40452148 52.78671387 18.05904297 53.26092773 18.73339844 53.74951172 C26.14804044 58.99845595 34.34393669 64.11464556 43 67 C42.67 67.66 42.34 68.32 42 69 C41.03578125 68.48308594 40.0715625 67.96617187 39.078125 67.43359375 C37.80241311 66.7675971 36.52635299 66.10226718 35.25 65.4375 C34.61578125 65.09525391 33.9815625 64.75300781 33.328125 64.40039062 C29.7117294 62.49459471 29.7117294 62.49459471 25.72265625 62.1875 C24.17924809 62.91545668 22.67922056 63.73376635 21.1875 64.5625 C15.36859766 67.20279489 8.25957431 66.21751417 2 66 C2 65.67 2 65.34 2 65 C3.2684375 64.94392578 3.2684375 64.94392578 4.5625 64.88671875 C11.31064379 64.49563314 16.82797163 63.78346377 23 61 C23 60.34 23 59.68 23 59 C20.96664022 57.46964527 18.92391903 56.04042561 16.8125 54.625 C9.22395165 49.38035979 2.61561908 43.40660913 -4 37 C-4.7115625 36.32839844 -5.423125 35.65679687 -6.15625 34.96484375 C-10.27830917 30.99645784 -13.69288604 26.66387867 -17 22 C-16.67 21.34 -16.34 20.68 -16 20 C-15.21496094 20.92941406 -14.42992187 21.85882813 -13.62109375 22.81640625 C-5.36878639 33.68873142 -5.36878639 33.68873142 5 42 C4.80664062 41.46375 4.61328125 40.9275 4.4140625 40.375 C0.04514899 27.2250029 -0.32820216 13.71155683 0 0 Z " fill="#99E1CB" transform="translate(211,343)"/>
<path d="M0 0 C0.66 0.33 1.32 0.66 2 1 C0.96566873 1.94558687 -0.07794146 2.88102584 -1.125 3.8125 C-1.70507812 4.33457031 -2.28515625 4.85664063 -2.8828125 5.39453125 C-5 7 -5 7 -7.95581055 8.21899414 C-12.76894768 11.03492448 -13.39482493 14.76647246 -15.04443359 19.89550781 C-16.86769153 26.94169981 -16.78625055 34.14287891 -16.8125 41.375 C-16.83571584 42.9010763 -16.86109546 44.42712127 -16.88867188 45.953125 C-16.95061902 49.63539406 -16.98366479 53.31721192 -17 57 C-17.33 57 -17.66 57 -18 57 C-19.14878326 46.25001618 -20.19850255 35.50519995 -20.3125 24.6875 C-20.32990234 23.94330811 -20.34730469 23.19911621 -20.36523438 22.43237305 C-20.36039339 17.05222188 -19.83932545 11.67908941 -17 7 C-14.4684305 5.16356726 -11.86592572 4.34103359 -8.875 3.5 C-7.41369922 3.03238375 -5.95274237 2.56369087 -4.4921875 2.09375 C-3.33976563 1.7328125 -2.18734375 1.371875 -1 1 C-0.67 0.67 -0.34 0.34 0 0 Z " fill="#039F88" transform="translate(554,313)"/>
<path d="M0 0 C0.42410156 0.38671875 0.84820312 0.7734375 1.28515625 1.171875 C7.80264431 6.95883143 13.13918849 10.37818867 22 11 C17.29419685 15.86266326 17.29419685 15.86266326 12.87109375 16.33203125 C8.00869683 15.914974 5.11901545 14.2551668 1.0625 11.6875 C0.37865234 11.28337891 -0.30519531 10.87925781 -1.00976562 10.46289062 C-2.96484375 9.26171875 -2.96484375 9.26171875 -6 7 C-6 6.01 -6 5.02 -6 4 C-3 1.8125 -3 1.8125 0 0 Z " fill="#DEE0E0" transform="translate(256,447)"/>
<path d="M0 0 C0.99 0 1.98 0 3 0 C2.54879781 4.9632241 0.29719025 8.40145365 -3 12 C-6.51647083 14.3941929 -8.12488599 15.08102908 -12.375 14.6875 C-13.24125 14.460625 -14.1075 14.23375 -15 14 C-15.33 13.01 -15.66 12.02 -16 11 C-14.68 10.34 -13.36 9.68 -12 9 C-12 8.34 -12 7.68 -12 7 C-10.56705502 6.15885829 -9.12845595 5.32734313 -7.6875 4.5 C-6.88699219 4.0359375 -6.08648437 3.571875 -5.26171875 3.09375 C-3 2 -3 2 0 2 C0 1.34 0 0.68 0 0 Z " fill="#284A50" transform="translate(361,389)"/>
<path d="M0 0 C2.10375 0.12375 4.2075 0.2475 6.375 0.375 C8.15003906 0.47941406 8.15003906 0.47941406 9.9609375 0.5859375 C13 1 13 1 15 3 C17.06874034 3.6425235 17.06874034 3.6425235 19 4 C19 4.66 19 5.32 19 6 C18.34773438 6.08636719 17.69546875 6.17273438 17.0234375 6.26171875 C10.80710521 7.26109961 7.4559095 8.5440905 3 13 C2.01 13.99 1.02 14.98 0 16 C0 10.72 0 5.44 0 0 Z " fill="#E8F0ED" transform="translate(457,286)"/>
<path d="M0 0 C0.8971875 0.309375 0.8971875 0.309375 1.8125 0.625 C2.5625 2.75 2.5625 2.75 2.8125 5.625 C1.32459453 8.20403614 -0.07362869 10.51112869 -2.1875 12.625 C-3.85367115 12.66563832 -5.52138095 12.667721 -7.1875 12.625 C-8.28849493 9.22192475 -8.26850938 7.83157391 -6.9375 4.4375 C-3.77384538 -0.64694492 -3.77384538 -0.64694492 0 0 Z " fill="#2A464F" transform="translate(333.1875,94.375)"/>
<path d="M0 0 C0 0.99 0 1.98 0 3 C-4.39531849 7.28625352 -9.73059507 11 -16 11 C-16 15.95 -16 20.9 -16 26 C-16.66 26 -17.32 26 -18 26 C-18 26.66 -18 27.32 -18 28 C-18.66 27.67 -19.32 27.34 -20 27 C-19.86980469 26.27554687 -19.73960937 25.55109375 -19.60546875 24.8046875 C-18.6147579 19.25930172 -18.6147579 19.25930172 -20.08203125 14.0390625 C-21.35297693 12.65957876 -22.67367456 11.32632544 -24 10 C-23.67 9.01 -23.34 8.02 -23 7 C-22.360625 7.99 -21.72125 8.98 -21.0625 10 C-20.0415625 11.485 -20.0415625 11.485 -19 13 C-18.67 13 -18.34 13 -18 13 C-17.87882812 12.28972656 -17.75765625 11.57945312 -17.6328125 10.84765625 C-17.46523438 9.92855469 -17.29765625 9.00945312 -17.125 8.0625 C-16.96257812 7.14597656 -16.80015625 6.22945313 -16.6328125 5.28515625 C-16.42398437 4.53105469 -16.21515625 3.77695312 -16 3 C-15.34 2.67 -14.68 2.34 -14 2 C-14.33 4.31 -14.66 6.62 -15 9 C-8.76861974 7.03219571 -4.69351139 4.53217194 0 0 Z " fill="#9EE3CE" transform="translate(468,334)"/>
<path d="M0 0 C2.48706818 0.90438843 3.55364337 1.56215789 5.0625 3.75 C5.3125 6.875 5.3125 6.875 5.0625 9.75 C4.0625 10.75 4.0625 10.75 1.6875 11.0625 C-0.9375 10.75 -0.9375 10.75 -2.75 9.125 C-4.22351103 6.17797793 -4.15929212 4.00295114 -3.9375 0.75 C-1.9375 -0.25 -1.9375 -0.25 0 0 Z " fill="#34545E" transform="translate(264.9375,185.25)"/>
<path d="M0 0 C5.4 -0.36 5.4 -0.36 7.875 1.125 C9.48515263 3.80858771 9.26647742 5.93550972 9 9 C8 10 8 10 5.625 10.3125 C3 10 3 10 1.1875 8.375 C-0.28601103 5.42797793 -0.22179212 3.25295114 0 0 Z " fill="#34555F" transform="translate(261,154)"/>
<path d="M0 0 C2.64 0 5.28 0 8 0 C8 3.3 8 6.6 8 10 C7.195625 10.12375 6.39125 10.2475 5.5625 10.375 C4.716875 10.58125 3.87125 10.7875 3 11 C2.67 11.66 2.34 12.32 2 13 C1.34 8.71 0.68 4.42 0 0 Z " fill="#EF8F8E" transform="translate(542,437)"/>
<path d="M0 0 C2.36905597 4.42223781 3.11300597 8.2052896 3.31640625 13.203125 C3.35830078 14.1828125 3.40019531 15.1625 3.44335938 16.171875 C3.48267578 17.18765625 3.52199219 18.2034375 3.5625 19.25 C3.60568359 20.28125 3.64886719 21.3125 3.69335938 22.375 C3.79925682 24.9165387 3.90133443 27.45817196 4 30 C2.47245799 27.21040419 1.63901505 24.80170045 1.1484375 21.6640625 C0.95507812 20.43816406 0.95507812 20.43816406 0.7578125 19.1875 C0.63148438 18.341875 0.50515625 17.49625 0.375 16.625 C0.2409375 15.78710938 0.106875 14.94921875 -0.03125 14.0859375 C-0.7074907 9.69727334 -1.2686816 5.45445809 -1 1 C-0.67 0.67 -0.34 0.34 0 0 Z " fill="#C4EAE5" transform="translate(535,385)"/>
<path d="M0 0 C0.33 0 0.66 0 1 0 C1.56540084 9.61181435 1.56540084 9.61181435 -2 14 C-2.99 14.495 -2.99 14.495 -4 15 C-3.52396226 12.87429688 -3.04407402 10.74945573 -2.5625 8.625 C-2.29566406 7.44164062 -2.02882813 6.25828125 -1.75390625 5.0390625 C-1 2 -1 2 0 0 Z " fill="#C6EBE5" transform="translate(533,334)"/>
<path d="M0 0 C0.33 0.66 0.66 1.32 1 2 C-1.53645881 5.10011632 -4.15184135 6.0575938 -8 7 C-9.32 6.67 -10.64 6.34 -12 6 C-8.04 4.02 -4.08 2.04 0 0 Z " fill="#17E3C7" transform="translate(545,268)"/>
<path d="M0 0 C0 1.65 0 3.3 0 5 C-1.98 5.99 -1.98 5.99 -4 7 C-4.6875 5.1875 -4.6875 5.1875 -5 3 C-3.38441968 0.84589291 -2.74502455 0 0 0 Z " fill="#2B4650" transform="translate(357,68)"/>
</svg>
