<svg xmlns="http://www.w3.org/2000/svg" version="1.1" viewBox="0 0 1497 2048" width="1280" height="1280" transform="matrix(-1, 0, 0, 1, 0, 0)">
<path transform="translate(1169)" d="m0 0 14 6 39 15 37 15 2 1 1 9-1 53-3 48-5 49-6 44-7 41-10 49-13 52-12 40-12 36-15 39-11 26-12 26-14 28-13 23 2 5 11 15 13 21 9 16 12 23 11 23 10 24 11 29 15 44 9 30 10 36 12 48 12 53 14 74 10 60 10 71 8 68 4 37 3 12 17 47 13 36 14 41 16 51 16 54 13 47 12 45 15 62 14 63 17 85 12 68 12 74 8 61 2 19v6h-49l-16-5-66-17-54-14-4-2-5-24-10-50-7-30-12-45-12-39-12-36-13-37-17-43-13-31-16-36-16-34-18-36-10-19-12-22-13-23-14-23-4-6v-2l-3 3-8 16-12 23-13 23-18 30-11 17-16 24-12 17-10 14-16 21-10 13-13 16-11 13-9 11-11 12-9 11-8 8-7 8-11 11-7 8-23 23-8 7-12 12-8 7-11 10-8 7-14 12-10 8-13 10-5 4-7-1-86-22-65-17-40-10-1-3 7-8 11-12 7-8 11-13 7-8 9-11 11-13 13-16 11-14 12-15 13-17 14-18 14-19 26-36 13-19 32-48 12-19 14-23 13-22 18-32 15-28 13-26 13-28 11-25 9-23 5-14 1-8-3-36-6-48-8-47-9-43-13-52-10-34-13-40-12-33-15-37-13-29-16-33-12-23-10-17-6-10-4 5-10 15-12 21-11 21-13 28-10 24-12 31-13 38-10 34-11 41-11 49-8 40 2 4 9 7 8 9 6 13 2 8v15l-3 11-5 10-12 17-14 20-13 18-10 14-4 6-4-2-23-16-14-10v-4l13-18 16-23 12-17 8-12v-3l-7 1-14 3-25 2-22-2-19-5-16-7-11-7-13-13-8-14-4-14-1-8v-34l-5-5-5-3-7 9-16 23-12 17-10 14-7 10-7-4-17-12-18-13 2-5 10-13 13-19 13-18 13-19 10-11 11-7 14-4h15l7 2 1-15 5-39 8-44 9-39 10-35 12-36 10-27 11-26 13-28 10-19 13-24 14-23 10-15 12-17 12-16 11-14 9-10 7-8 8-8 25-14 25-13 23-13 28-15 21-12 29-17 22-14 17-12 10-8 11-9 10-9 8-7 9-9h2v-2l6-5 7-8 14-14 9-11 9-10 9-11 14-18 15-20 14-20 14-21 9-14 15-24 15-26 13-24 6-10 31-62 13-28 17-39 14-34 19-51 2-5z" fill="#bababa"/>
<path transform="translate(669,111)" d="m0 0h36l27 4 21 6 16 6 21 10 16 10 13 10 13 11 15 15 13 17 9 14 7 12 8 18 8 24 4 17 3 26v27l-3 24-6 24-7 20-9 19-11 18-9 12-9 11-19 19-14 11-15 10-16 9-19 8-22 7-25 5-24 2-25-1-20-3-17-4-21-7-25-12-16-10-13-10-14-12-11-11-9-11-11-15-10-17-9-19-9-27-5-25-2-22v-16l2-21 5-25 9-27 10-21 12-19 10-13 9-11h2l2-4 7-7h2v-2l11-9 17-12 17-10 25-11 24-7 22-4z" fill="#bababa"/>
<path transform="translate(117,1215)" d="m0 0 5 1 20 14 18 13 17 12 14 10 17 12 18 13 17 12 18 13 20 14 18 13 17 12v4l-8 12-14 20-8 11 1 3 17 12 18 13 20 14 18 13 20 14 18 13 7 5h2l24-34 7-11 4 1 16 11 18 13 17 12 18 13 17 12 18 13 19 13 16 12 19 13 16 12 13 9 9 7-5 9-11 15-13 19-11 15-13 19-12 16-13 19-13 18-16 23-9 12-7 5-3 1h-10l-12-7-36-26-17-12-18-13-34-24-18-13-34-24-18-13-34-24-18-13-17-12-18-13-34-24-18-13-17-12-18-13-19-13-12-9-34-24-18-13-17-12-18-13-15-11-8-9v-14h2l2-5 11-16 12-17 14-20 13-18 13-19 11-15 13-19 12-16 13-19z" fill="#bababa"/>
<path transform="translate(221,1078)" d="m0 0h9l11 6 16 12 16 11 18 13 17 12 18 13 17 12 18 13 34 24 18 13 20 14 18 13 17 12 18 13 19 13 16 12 19 13 16 12 13 9 17 12 18 13 17 12 18 13 19 13 16 12 19 13 16 12 17 12 4 5 3 8-1 8-5 9-24 34-10 14-36 51-5 5-14-10-34-24-18-13-17-12-18-13-34-24-18-13-17-12-18-13-10-7 2-4 21-30-1-3-19-13-16-12-19-13-16-12-13-9-18-13-14-10-5-2-13 19-8 11-2 3-4-1-18-13-20-14-18-13-20-14-18-13-20-14-18-13-17-12-18-13-20-14-9-6 2-4 13-19 10-14 48-68 8-9z" fill="#bababa"/>
</svg>